<?xml version="1.0" encoding="UTF-8"?>
<svg version="1.1" xmlns="http://www.w3.org/2000/svg" width="1536" height="1024">
<path d="M0 0 C1.04752441 0.00326294 1.04752441 0.00326294 2.11621094 0.0065918 C4.24986735 0.00975385 6.38213994 -0.01371075 8.515625 -0.0390625 C9.86718575 -0.04133526 11.21875023 -0.0420391 12.5703125 -0.04101562 C14.42076172 -0.04548706 14.42076172 -0.04548706 16.30859375 -0.05004883 C17.28183594 0.07281494 18.25507813 0.19567871 19.2578125 0.32226562 C21.66756956 3.93690122 21.59020682 6.64445823 21.5703125 10.82226562 C21.58642578 11.49902344 21.60253906 12.17578125 21.61914062 12.87304688 C21.62109375 14.85351562 21.62109375 14.85351562 21.2578125 18.32226562 C20.51324295 19.04335258 20.51324295 19.04335258 19.75363159 19.77900696 C18.09174043 21.20523598 18.09174043 21.20523598 17.91482544 23.26164246 C17.93020355 23.99474136 17.94558167 24.72784027 17.96142578 25.4831543 C17.97727219 26.73542061 17.97727219 26.73542061 17.99343872 28.01298523 C18.02138519 28.91297745 18.04933167 29.81296967 18.078125 30.74023438 C18.09745087 31.67144608 18.11677673 32.60265778 18.13668823 33.56208801 C18.18160483 35.53514804 18.23423074 37.50804527 18.29394531 39.48071289 C18.38195561 42.48055838 18.43888228 45.47982933 18.4921875 48.48046875 C18.53978864 50.40043811 18.5892103 52.32036336 18.640625 54.24023438 C18.65642609 55.13010544 18.67222717 56.0199765 18.68850708 56.93681335 C18.92448012 63.74613112 19.79786822 69.80439487 24.74609375 74.86914062 C25.67808594 75.59617187 26.61007812 76.32320313 27.5703125 77.07226562 C36.30954521 84.62083568 40.26504006 93.91352001 41.2578125 105.32226562 C41.88920109 116.60193748 40.8235211 128.05022077 40.2578125 139.32226562 C41.01707031 139.10570312 41.77632812 138.88914062 42.55859375 138.66601562 C44.04939453 138.24835938 44.04939453 138.24835938 45.5703125 137.82226562 C47.04951172 137.40460938 47.04951172 137.40460938 48.55859375 136.97851562 C51.2578125 136.32226562 51.2578125 136.32226562 54.2578125 136.32226562 C54.6290625 135.11570312 54.6290625 135.11570312 55.0078125 133.88476562 C56.27997248 130.2591097 57.84431378 126.90775774 59.55078125 123.47070312 C60.39885027 120.89369781 60.26254924 119.82161075 59.2578125 117.32226562 C58.02872886 115.48597705 58.02872886 115.48597705 56.5078125 113.69726562 C49.55659413 104.62392049 45.47631942 94.75416467 46.5546875 83.11914062 C47.7138125 76.41026562 47.7138125 76.41026562 49.2578125 73.32226562 C54.15547911 73.74206562 56.12072005 75.636182 59.2578125 79.32226562 C66.32566627 88.54393282 67.47199495 98.00316163 67.2578125 109.32226562 C72.91447888 98.87724822 78.38618888 88.71092715 81.0703125 77.07226562 C83.97051473 64.6158268 89.38368734 55.86272472 100.47265625 48.93945312 C103.98750338 47.06748613 106.22964621 46.32226562 110.2578125 46.32226562 C110.90385585 58.61503497 109.55699728 68.41694535 101.53125 78.10742188 C97.56404518 81.97237914 89.97097381 89.32226562 84.2578125 89.32226562 C84.00386719 90.01449219 83.74992188 90.70671875 83.48828125 91.41992188 C82.09209205 94.71315544 80.38444927 97.67680234 78.5703125 100.75976562 C74.47391408 107.79595459 70.81819011 115.00123917 67.2578125 122.32226562 C67.67554932 121.89405518 68.09328613 121.46584473 68.52368164 121.0246582 C70.4504165 119.05591643 72.38526999 117.09534121 74.3203125 115.13476562 C74.97708984 114.46123047 75.63386719 113.78769531 76.31054688 113.09375 C85.68702057 103.62489725 95.01909469 98.25745587 108.7578125 97.88476562 C113.15459646 97.89080516 115.62712205 98.84260928 119.2578125 101.32226562 C116.23349754 109.92644168 109.61281377 115.85612891 101.75 120.16992188 C95.6201087 123.004276 90.28067363 123.37986049 83.5703125 123.19726562 C78.18500472 123.12838378 75.29994929 123.47730624 71.2578125 127.32226562 C70.19204663 128.52889041 69.13910351 129.74693358 68.09765625 130.97460938 C67.56390381 131.60230225 67.03015137 132.22999512 66.48022461 132.87670898 C66.07682861 133.35374268 65.67343262 133.83077637 65.2578125 134.32226562 C65.83635986 134.23662354 66.41490723 134.15098145 67.01098633 134.06274414 C89.49946237 130.74910042 89.49946237 130.74910042 97.2578125 130.32226562 C98.19882812 130.2578125 99.13984375 130.19335938 100.109375 130.12695312 C106.06763543 129.88605311 110.60665469 130.28144074 115.2578125 134.32226562 C122.15784303 141.09011166 128.0720729 148.87120763 133.90136719 156.56396484 C135.20678665 158.25612304 136.55735673 159.90030761 137.921875 161.54492188 C144.5839406 170.07871066 145.59401144 176.8463066 145.2578125 187.32226562 C145.85207031 187.34804688 146.44632812 187.37382812 147.05859375 187.40039062 C156.42396998 188.04125618 165.69448394 190.25406564 172.2578125 197.32226562 C175.0992771 203.1343523 175.11665053 209.31586467 173.1328125 215.38476562 C171.18511223 220.10025049 167.90899293 224.99667541 163.2578125 227.32226562 C162.40499243 229.95884511 162.40499243 229.95884511 161.7331543 233.22460938 C161.44913254 234.49103271 161.16511078 235.75745605 160.8724823 237.06225586 C160.72357229 237.74504608 160.57466228 238.4278363 160.42123985 239.13131714 C159.95258967 241.28013076 159.47390052 243.42648998 158.99263 245.57250977 C158.14088295 249.37850753 157.29826579 253.18646072 156.45849609 256.99511719 C142.65548907 319.58801109 142.65548907 319.58801109 127.2265625 329.64648438 C82.01194567 354.88069834 2.11467781 350.89555899 -46.4296875 337.63476562 C-60.17495734 333.63428605 -75.44412825 328.22388869 -82.99169922 315.15942383 C-86.0628729 309.33535346 -88.00817488 303.65524859 -89.4921875 297.25976562 C-89.73042236 296.27169922 -89.96865723 295.28363281 -90.21411133 294.265625 C-92.73752702 283.64569257 -95.07763086 272.98120609 -97.4296875 262.32226562 C-97.62195923 261.4515744 -97.81423096 260.58088318 -98.0123291 259.68380737 C-99.93364949 250.9563893 -101.81345117 242.22116659 -103.51171875 233.44726562 C-103.87100464 231.59488281 -103.87100464 231.59488281 -104.23754883 229.70507812 C-104.71331759 226.51579318 -104.83906309 223.54038062 -104.7421875 220.32226562 C-105.33386719 220.1753125 -105.92554688 220.02835938 -106.53515625 219.87695312 C-112.49143693 218.18626334 -115.25184352 216.44870834 -118.7421875 211.32226562 C-120.6102874 207.58606582 -120.28591378 203.39083816 -119.7421875 199.32226562 C-118.00159488 195.5522825 -115.18777472 193.59507413 -111.6796875 191.44726562 C-105.18576695 189.05625784 -97.64496575 189.69968572 -91.0546875 191.38476562 C-81.80694233 193.65153087 -73.15094031 190.10502956 -64.33984375 187.38085938 C-60.7421875 186.32226562 -60.7421875 186.32226562 -58.7421875 186.32226562 C-63.10662082 181.6568369 -66.0940086 181.23427381 -72.3671875 180.94726562 C-82.85473779 180.21432275 -90.10737169 177.77629345 -97.7421875 170.32226562 C-101.79002038 165.44944586 -105.26202635 160.57183493 -106.7421875 154.32226562 C-100.98756138 150.48584821 -91.72678593 151.69700767 -85.00390625 152.75195312 C-73.56376194 156.04378861 -66.07420957 165.82423251 -59.7421875 175.32226562 C-63.86315455 158.67928319 -63.86315455 158.67928319 -75.7421875 147.32226562 C-82.53759226 141.47400798 -85.30082215 133.46417195 -86.0546875 124.68164062 C-86.15813841 118.60389971 -86.05910298 112.9858368 -83.7421875 107.32226562 C-83.0821875 106.66226563 -82.4221875 106.00226563 -81.7421875 105.32226562 C-73.64569573 106.06075161 -66.88296373 112.5507877 -61.46875 118.16992188 C-55.61118801 125.47199576 -53.94989187 134.18445597 -54.7421875 143.32226562 C-55.19130273 144.96205845 -55.69210347 146.5885293 -56.2421875 148.19726562 C-58.17725164 153.90252514 -58.01885937 159.35844985 -57.7421875 165.32226562 C-57.0821875 165.32226562 -56.4221875 165.32226562 -55.7421875 165.32226562 C-55.72800781 164.69320312 -55.71382813 164.06414062 -55.69921875 163.41601562 C-55.28619679 156.00394587 -53.37660233 151.06598616 -48.18359375 145.71679688 C-45.57731004 143.39648943 -44.30657169 142.32226562 -40.7421875 142.32226562 C-37.65351612 149.85090211 -38.0786417 156.92011894 -40.546875 164.56445312 C-42.53890252 169.1604382 -45.25522016 173.2669856 -48 177.43945312 C-49.4688927 179.8700424 -50.30156619 181.55836833 -50.7421875 184.32226562 C-49.7521875 183.99226562 -48.7621875 183.66226563 -47.7421875 183.32226562 C-45.17583889 183.09508067 -42.62540643 182.90618379 -40.0546875 182.75976562 C-39.0018457 182.69499023 -39.0018457 182.69499023 -37.92773438 182.62890625 C-36.19943544 182.52309203 -34.4708364 182.42219982 -32.7421875 182.32226562 C-32.75218025 180.87765961 -32.75218025 180.87765961 -32.76237488 179.40386963 C-32.8234531 170.28363498 -32.86828753 161.16344238 -32.89762402 152.04304886 C-32.91321372 147.355272 -32.93432817 142.66766158 -32.96850586 137.97998047 C-33.00134004 133.44769426 -33.01909073 128.91556714 -33.02681923 124.38317108 C-33.03231989 122.66259002 -33.04306009 120.94201669 -33.05937767 119.22150421 C-33.18060748 105.89716535 -33.02448501 92.86695559 -23.7421875 82.32226562 C-20.93415205 79.75219928 -18.0887373 77.27561341 -15.1328125 74.87695312 C-10.03055639 69.42454218 -10.38424857 62.17630762 -10.22265625 55.08398438 C-10.19617508 54.12200638 -10.16969391 53.16002838 -10.14241028 52.16889954 C-10.08997488 50.14779153 -10.04234323 48.12655376 -9.99926758 46.10522461 C-9.929506 43.00169131 -9.8336346 39.89965243 -9.73632812 36.796875 C-9.68851846 34.83011603 -9.64224017 32.86331911 -9.59765625 30.89648438 C-9.56657272 29.96632004 -9.5354892 29.0361557 -9.50346375 28.07780457 C-9.4827758 26.79055229 -9.4827758 26.79055229 -9.46166992 25.47729492 C-9.43407845 24.343144 -9.43407845 24.343144 -9.40592957 23.18608093 C-9.57237724 22.26349236 -9.57237724 22.26349236 -9.7421875 21.32226562 C-10.7321875 20.66226562 -11.7221875 20.00226563 -12.7421875 19.32226562 C-13.01789356 16.40511761 -13.1144436 13.73358302 -13.0546875 10.82226562 C-13.05791016 10.03722656 -13.06113281 9.2521875 -13.06445312 8.44335938 C-12.97260993 -1.29201968 -8.19503592 0.03381411 0 0 Z M-7.7421875 7.32226562 C-7.4121875 9.63226563 -7.0821875 11.94226563 -6.7421875 14.32226562 C0.5178125 14.32226562 7.7778125 14.32226562 15.2578125 14.32226562 C15.2578125 12.01226562 15.2578125 9.70226562 15.2578125 7.32226562 C7.6678125 7.32226562 0.0778125 7.32226562 -7.7421875 7.32226562 Z M-15.8046875 88.19726562 C-16.45566406 88.7309375 -17.10664063 89.26460938 -17.77734375 89.81445312 C-23.17101164 96.69861771 -24.3296495 104.30954717 -24.19628906 112.82080078 C-24.19687317 113.81712524 -24.19745728 114.81344971 -24.19805908 115.83996582 C-24.19529661 119.09745463 -24.16429159 122.35400134 -24.1328125 125.61132812 C-24.12534358 127.88389588 -24.11965373 130.15647011 -24.11566162 132.42904663 C-24.10045665 138.38362701 -24.06121906 144.3378114 -24.0168457 150.29223633 C-23.97578201 156.37901454 -23.95762695 162.4658573 -23.9375 168.55273438 C-23.89471988 180.47608456 -23.82653096 192.39914204 -23.7421875 204.32226562 C-20.7721875 204.65226562 -17.8021875 204.98226562 -14.7421875 205.32226562 C-14.74662872 204.19046371 -14.75106995 203.0586618 -14.75564575 201.89256287 C-14.79638238 191.16917844 -14.82626272 180.44580994 -14.84581184 169.72236538 C-14.85620044 164.21079188 -14.87026854 158.69928139 -14.89306641 153.18774414 C-14.91497183 147.85794019 -14.92679305 142.52819644 -14.93194199 137.19835091 C-14.93560623 135.17603675 -14.94276047 133.15372547 -14.95364761 131.1314373 C-15.11454098 99.97533036 -15.11454098 99.97533036 -8.7421875 91.32226562 C-6.4648374 88.50716569 -6.4648374 88.50716569 -6.7421875 85.32226562 C-10.82880029 84.9953366 -12.70221592 85.52038159 -15.8046875 88.19726562 Z M-74.7421875 120.32226562 C-74.70545821 128.62308579 -72.26477137 135.36362956 -67.7421875 142.32226562 C-65.67338398 144.1410933 -65.67338398 144.1410933 -63.7421875 145.32226562 C-62.99535211 137.52198486 -64.28460666 131.83010329 -68.7421875 125.32226562 C-70.64889489 123.33518181 -72.46963235 121.90776921 -74.7421875 120.32226562 Z M83.9765625 139.09179688 C47.52611272 141.85896537 47.52611272 141.85896537 17.2578125 159.32226562 C16.30618878 162.17713677 16.13618111 163.9268088 16.14428711 166.88549805 C16.14436264 167.80622604 16.14443817 168.72695404 16.14451599 169.67558289 C16.14967728 170.66629288 16.15483856 171.65700287 16.16015625 172.67773438 C16.1615712 173.6945076 16.16298615 174.71128082 16.16444397 175.75886536 C16.17004543 179.00919526 16.18259818 182.25945651 16.1953125 185.50976562 C16.20032731 187.71223859 16.20489025 189.91471263 16.20898438 192.1171875 C16.22001533 197.51890367 16.23675488 202.92057974 16.2578125 208.32226562 C19.89140044 209.5334616 23.42747243 209.77595284 27.21875 210.07617188 C28.02382996 210.14157166 28.82890991 210.20697144 29.65838623 210.27435303 C65.3802532 213.11204358 101.62945495 214.09526289 137.2578125 209.32226562 C138.572208 208.24165647 138.572208 208.24165647 138.27954102 205.63842773 C138.20884399 203.88671265 138.20884399 203.88671265 138.13671875 202.09960938 C138.08837891 200.83955078 138.04003906 199.57949219 137.99023438 198.28125 C137.93370433 196.94075054 137.87706223 195.6002558 137.8203125 194.25976562 C137.76710646 192.91538317 137.71436597 191.5709822 137.66210938 190.2265625 C137.53193705 186.92491906 137.39695639 183.6235412 137.2578125 180.32226562 C136.66137436 180.27902664 136.06493622 180.23578766 135.45042419 180.1912384 C119.6468744 179.02090791 104.00772759 177.23245157 88.3203125 175.00976562 C86.09599596 174.69943919 83.87163009 174.38946617 81.6472168 174.07983398 C64.16273329 171.63545836 46.69944309 169.05561255 29.2578125 166.32226562 C28.87562483 164.66611905 28.54386148 162.99769538 28.2578125 161.32226562 C28.5878125 160.99226563 28.9178125 160.66226563 29.2578125 160.32226562 C38.01174803 160.52253768 46.75072026 162.02671754 55.39453125 163.31835938 C56.72665204 163.51431553 58.05883223 163.70986828 59.3910675 163.90504456 C62.8717495 164.41573424 66.35182915 164.93040181 69.83172607 165.44641113 C99.2015595 170.57466109 99.2015595 170.57466109 128.8203125 172.44726562 C130.05910156 172.42921875 131.29789062 172.41117188 132.57421875 172.39257812 C133.90259766 172.35777344 133.90259766 172.35777344 135.2578125 172.32226562 C134.92910156 171.88398438 134.60039062 171.44570313 134.26171875 170.99414062 C133.54822266 170.0428125 133.54822266 170.0428125 132.8203125 169.07226562 C132.26859375 168.3375 131.716875 167.60273438 131.1484375 166.84570312 C129.84304699 165.10338439 128.54117973 163.35842233 127.2421875 161.61132812 C125.74943272 159.6084593 124.2378767 157.61950934 122.7109375 155.64257812 C120.94128765 153.31832509 119.3844991 150.93499895 117.8671875 148.43945312 C114.55083201 143.2290598 111.77368305 139.03486896 105.64453125 137.29882812 C98.43831312 136.79909161 91.12521008 138.34468951 83.9765625 139.09179688 Z M-46.7421875 192.32226562 C-45.7521875 195.29226563 -44.7621875 198.26226563 -43.7421875 201.32226562 C-37.8021875 202.31226563 -37.8021875 202.31226563 -31.7421875 203.32226562 C-31.7421875 199.36226562 -31.7421875 195.40226563 -31.7421875 191.32226562 C-33.86711891 191.29532987 -35.99214662 191.27589934 -38.1171875 191.25976562 C-39.89222656 191.24236328 -39.89222656 191.24236328 -41.703125 191.22460938 C-44.66140271 191.1075997 -44.66140271 191.1075997 -46.7421875 192.32226562 Z M-62.3671875 193.82226562 C-63.55570312 194.10070312 -64.74421875 194.37914062 -65.96875 194.66601562 C-66.88398438 194.88257813 -67.79921875 195.09914063 -68.7421875 195.32226562 C-65.93766048 196.83925979 -63.3564573 197.77535125 -60.2421875 198.44726562 C-59.489375 198.61484375 -58.7365625 198.78242187 -57.9609375 198.95507812 C-55.45928817 199.43111377 -55.45928817 199.43111377 -51.7421875 199.32226562 C-52.4021875 197.01226562 -53.0621875 194.70226562 -53.7421875 192.32226562 C-56.7287247 192.32226562 -59.46448053 193.13927575 -62.3671875 193.82226562 Z M145.2578125 195.32226562 C145.2578125 198.95226562 145.2578125 202.58226562 145.2578125 206.32226562 C151.22346046 205.81455091 155.89591149 203.93634435 161.2578125 201.32226562 C161.2578125 200.66226563 161.2578125 200.00226563 161.2578125 199.32226562 C159.15529389 198.65041945 157.05073487 197.98495594 154.9453125 197.32226562 C153.77355469 196.95101562 152.60179687 196.57976562 151.39453125 196.19726562 C148.31894574 195.1879179 148.31894574 195.1879179 145.2578125 195.32226562 Z M-109.7421875 198.32226562 C-112.03835714 201.19874787 -112.03835714 201.19874787 -111.8671875 204.75976562 C-111.15085426 208.25316142 -111.15085426 208.25316142 -109.22729492 209.42871094 C-103.91013312 211.91785117 -98.53338489 213.88935169 -92.9296875 215.63476562 C-91.6622168 216.04952148 -91.6622168 216.04952148 -90.36914062 216.47265625 C-89.55767578 216.72853516 -88.74621094 216.98441406 -87.91015625 217.24804688 C-87.18078857 217.47919189 -86.4514209 217.71033691 -85.69995117 217.94848633 C-83.53963287 218.52615179 -83.53963287 218.52615179 -80.7421875 217.32226562 C-82.82296311 214.90338646 -84.90726026 212.48756677 -86.9921875 210.07226562 C-87.57871094 209.39035156 -88.16523438 208.7084375 -88.76953125 208.00585938 C-89.91201631 206.68365757 -91.06110265 205.36712586 -92.21728516 204.05688477 C-93.4281728 202.67946615 -94.61002764 201.27653488 -95.78125 199.86523438 C-98.50964836 197.71838706 -100.43740632 197.82156327 -103.8671875 197.88476562 C-104.92164063 197.88605469 -105.97609375 197.88734375 -107.0625 197.88867188 C-107.94679687 198.03175781 -108.83109375 198.17484375 -109.7421875 198.32226562 Z M-83.7421875 201.32226562 C-82.31000153 205.7143026 -80.11738902 208.4508361 -76.9921875 211.82226562 C-76.15171875 212.74007812 -75.31125 213.65789062 -74.4453125 214.60351562 C-73.55328125 215.50070312 -72.66125 216.39789062 -71.7421875 217.32226562 C-70.88882813 218.21300781 -70.03546875 219.10375 -69.15625 220.02148438 C-64.79607098 223.56658488 -59.26540275 223.86691604 -53.8671875 224.63476562 C-52.79726563 224.80298828 -51.72734375 224.97121094 -50.625 225.14453125 C-47.99957143 225.55475446 -45.37275814 225.94669735 -42.7421875 226.32226562 C-46.20653633 222.14298016 -49.70186507 218.27341829 -53.8046875 214.69726562 C-56.38416308 212.43971511 -58.76872273 210.2915286 -61.01171875 207.69335938 C-64.59752042 204.57950871 -67.78992007 203.91194035 -72.3671875 203.00976562 C-73.1303125 202.84154297 -73.8934375 202.67332031 -74.6796875 202.5 C-77.74758493 201.84067117 -80.59694903 201.32226562 -83.7421875 201.32226562 Z M162.71875 208.15039062 C159.01554386 210.66051362 155.15209784 211.84474959 150.8828125 213.07226562 C150.14675781 213.29269531 149.41070312 213.513125 148.65234375 213.74023438 C146.85682462 214.27655827 145.05767151 214.80069128 143.2578125 215.32226562 C147.75635392 218.89905691 152.32861277 220.62483712 157.8828125 221.94726562 C161.3120446 221.04483612 162.91578558 219.14084277 165.09765625 216.41210938 C167.02514578 212.94003227 166.667526 210.21454389 166.2578125 206.32226562 C164.87161514 206.2248815 164.87161514 206.2248815 162.71875 208.15039062 Z M-51.7421875 207.32226562 C-47.69509421 212.37243639 -43.37907143 216.56644474 -38.3046875 220.57226562 C-37.67498047 221.08789062 -37.04527344 221.60351562 -36.39648438 222.13476562 C-30.11694978 227.14290421 -24.21264678 229.54581051 -16.1796875 230.50976562 C-14.92027344 230.66832031 -13.66085937 230.826875 -12.36328125 230.99023438 C-9.12751861 231.28693321 -5.9884132 231.38729018 -2.7421875 231.32226562 C-5.5112754 227.64093147 -8.40085325 224.7629635 -11.9921875 221.88476562 C-12.88421875 221.16417969 -13.77625 220.44359375 -14.6953125 219.70117188 C-15.70078125 218.91613281 -16.70625 218.13109375 -17.7421875 217.32226562 C-18.29261719 216.81469727 -18.84304688 216.30712891 -19.41015625 215.78417969 C-25.39993067 210.60169516 -31.54612798 209.86910133 -39.2421875 208.94726562 C-40.44617188 208.78355469 -41.65015625 208.61984375 -42.890625 208.45117188 C-45.83901397 208.05337336 -48.78845119 207.67776068 -51.7421875 207.32226562 Z M-10.7421875 213.32226562 C-10.7421875 213.98226562 -10.7421875 214.64226562 -10.7421875 215.32226562 C-9.17277949 216.76039236 -7.53344715 218.12256612 -5.8671875 219.44726562 C-4.37251953 220.64222656 -4.37251953 220.64222656 -2.84765625 221.86132812 C-1.31044922 223.07949219 -1.31044922 223.07949219 0.2578125 224.32226562 C1.21042969 225.093125 2.16304687 225.86398437 3.14453125 226.65820312 C14.08369785 235.50535392 24.41386405 234.50657855 38.2578125 234.32226562 C34.42422683 230.27529418 30.32671261 226.96811237 25.8203125 223.69726562 C25.17771484 223.2203125 24.53511719 222.74335937 23.87304688 222.25195312 C16.07101433 216.54894456 10.006246 214.78067342 0.3828125 214.13476562 C-0.68710937 214.05291016 -1.75703125 213.97105469 -2.859375 213.88671875 C-5.48635951 213.68734939 -8.11363643 213.49956073 -10.7421875 213.32226562 Z M29.2578125 217.32226562 C32.87710167 221.09038537 36.66484637 224.34893351 40.8203125 227.50976562 C41.38427734 227.94740234 41.94824219 228.38503906 42.52929688 228.8359375 C47.6174974 232.73391568 50.65137124 234.58355584 57.1171875 234.51757812 C58.23222656 234.51113281 59.34726562 234.5046875 60.49609375 234.49804688 C62.23439453 234.47291016 62.23439453 234.47291016 64.0078125 234.44726562 C65.18214844 234.43824219 66.35648438 234.42921875 67.56640625 234.41992188 C70.46374786 234.39636625 73.36067691 234.36347215 76.2578125 234.32226562 C75.07902525 233.13064222 73.89813613 231.94103462 72.70751953 230.76123047 C71.35910022 229.42280281 70.02465422 228.07033781 68.69140625 226.71679688 C57.21580228 216.82713035 43.84912759 217.47700821 29.2578125 217.32226562 Z M108.2578125 219.32226562 C113.63031007 225.84601268 121.91222213 230.15786946 130.2578125 231.38476562 C136.0913404 231.66886601 141.78931213 230.28642636 147.2578125 228.32226562 C147.9178125 227.66226563 148.5778125 227.00226563 149.2578125 226.32226562 C148.47277344 225.99613281 147.68773437 225.67 146.87890625 225.33398438 C145.82832031 224.89699219 144.77773438 224.46 143.6953125 224.00976562 C142.58929688 223.55601562 141.48328125 223.10226562 140.34375 222.63476562 C137.2578125 221.32226562 137.2578125 221.32226562 133.8203125 219.50976562 C125.72155686 216.81018041 116.59562432 218.19171487 108.2578125 219.32226562 Z M72.2578125 220.32226562 C75.26705398 227.03831336 83.11368937 231.5244961 89.70703125 234.38476562 C97.8674676 236.43555591 106.96407579 234.99082392 115.2578125 234.32226562 C115.2578125 233.66226563 115.2578125 233.00226563 115.2578125 232.32226562 C112.90965316 230.74786362 110.57451924 229.29994959 108.1328125 227.88476562 C107.46765625 227.48966797 106.8025 227.09457031 106.1171875 226.6875 C104.7904754 225.90578042 103.45622037 225.13672188 102.11474609 224.38061523 C100.54097264 223.48365127 99.00391896 222.52273238 97.4765625 221.54882812 C92.63707037 219.70465273 88.01009916 220.00575648 82.8828125 220.13476562 C81.86058594 220.14830078 80.83835937 220.16183594 79.78515625 220.17578125 C77.27549201 220.21096346 74.7669316 220.26019023 72.2578125 220.32226562 Z M-96.7421875 223.32226562 C-96.67578658 225.24185595 -96.53654284 227.15900796 -96.3671875 229.07226562 C-96.29757812 230.13960937 -96.22796875 231.20695313 -96.15625 232.30664062 C-94.50909472 235.81935852 -93.84847872 236.06657178 -90.390625 237.50976562 C-84.59460815 239.50165961 -78.68302708 241.07752293 -72.7421875 242.57226562 C-71.70707031 242.84039063 -70.67195313 243.10851562 -69.60546875 243.38476562 C-64.73373158 244.77257502 -64.73373158 244.77257502 -59.7421875 245.32226562 C-59.71503367 243.57235229 -59.69572199 241.82231617 -59.6796875 240.07226562 C-59.66808594 239.09773437 -59.65648437 238.12320313 -59.64453125 237.11914062 C-59.73083493 234.64740318 -60.1018048 232.68880099 -60.7421875 230.32226562 C-65.06393438 229.31839679 -69.38725768 228.32171376 -73.7121582 227.33154297 C-75.18200904 226.99397731 -76.65141795 226.65448119 -78.12036133 226.31298828 C-80.23664845 225.82136181 -82.35444824 225.33678963 -84.47265625 224.85351562 C-85.74520264 224.56025391 -87.01774902 224.26699219 -88.32885742 223.96484375 C-91.25099364 223.41473557 -93.78508506 223.18392165 -96.7421875 223.32226562 Z M-52.7421875 232.32226562 C-52.4121875 236.94226563 -52.0821875 241.56226563 -51.7421875 246.32226562 C-46.5400164 248.40313406 -41.79079215 249.38306712 -36.3046875 250.32226562 C-35.29204834 250.4959668 -34.27940918 250.66966797 -33.23608398 250.84863281 C-17.46357967 253.45476931 -1.72499962 254.73442983 14.2578125 254.32226562 C13.9278125 250.03226563 13.5978125 245.74226562 13.2578125 241.32226562 C11.93354248 241.15621826 10.60927246 240.9901709 9.24487305 240.8190918 C4.23651355 240.19028384 -0.77133454 239.55747711 -5.77905273 238.92358398 C-7.92865907 238.65201935 -10.0783949 238.38147735 -12.22827148 238.11206055 C-25.77477975 236.41360737 -39.2722832 234.55141528 -52.7421875 232.32226562 Z M146.39648438 234.98298645 C136.75647625 238.20881554 127.34082385 239.62798498 117.2578125 240.63476562 C115.69254917 240.80321499 114.12744297 240.97313118 112.5625 241.14453125 C108.79585618 241.55393688 105.0276856 241.9438017 101.2578125 242.32226562 C101.2578125 245.95226562 101.2578125 249.58226562 101.2578125 253.32226562 C127.95702816 252.10871235 127.95702816 252.10871235 151.2578125 241.32226562 C151.94632079 239.29060903 151.94632079 239.29060903 152.0078125 237.13476562 C152.0903125 235.87664062 152.1728125 234.61851562 152.2578125 233.32226562 C150.21274924 233.32226562 148.31440093 234.3273907 146.39648438 234.98298645 Z M21.2578125 242.32226562 C21.2578125 246.28226563 21.2578125 250.24226562 21.2578125 254.32226562 C25.23093687 258.29539 38.58603727 256.44453986 43.88465881 256.46151733 C45.96741512 256.46142424 48.05007224 256.4552426 50.1328125 256.44726562 C50.85004486 256.44571472 51.56727722 256.44416382 52.3062439 256.44256592 C61.56499169 256.41915308 70.81787356 256.31406044 80.0703125 255.94726562 C80.9576709 255.91648926 81.8450293 255.88571289 82.75927734 255.85400391 C83.97478271 255.79575439 83.97478271 255.79575439 85.21484375 255.73632812 C85.90553955 255.70490723 86.59623535 255.67348633 87.30786133 255.64111328 C89.69885757 255.34925657 89.69885757 255.34925657 93.2578125 253.32226562 C93.2578125 249.69226563 93.2578125 246.06226563 93.2578125 242.32226562 C69.4978125 242.32226562 45.7378125 242.32226562 21.2578125 242.32226562 Z M-92.7421875 245.32226562 C-92.0821875 248.62226562 -91.4221875 251.92226563 -90.7421875 255.32226562 C-76.75790414 259.89656392 -62.78210667 263.9802043 -48.4296875 267.19726562 C-47.16310303 267.48287354 -45.89651855 267.76848145 -44.59155273 268.06274414 C-36.67484358 269.79893307 -28.76403033 271.16586281 -20.7421875 272.32226562 C-21.0721875 268.03226563 -21.4021875 263.74226563 -21.7421875 259.32226562 C-23.04800781 259.14953125 -24.35382813 258.97679687 -25.69921875 258.79882812 C-42.52657011 256.40387945 -58.93606022 252.63265929 -75.45239258 248.67626953 C-76.37354355 248.45639374 -77.29469452 248.23651794 -78.24375916 248.00997925 C-79.99172346 247.59171391 -81.73888905 247.17009239 -83.48512268 246.74465942 C-86.63490396 245.98861441 -89.49023123 245.32226562 -92.7421875 245.32226562 Z M142.56640625 252.63476562 C141.15004883 253.04082031 141.15004883 253.04082031 139.70507812 253.45507812 C138.71185547 253.74125 137.71863281 254.02742187 136.6953125 254.32226562 C135.69822266 254.6084375 134.70113281 254.89460937 133.67382812 255.18945312 C131.20148556 255.89921654 128.72960601 256.61059243 126.2578125 257.32226562 C126.2578125 260.95226562 126.2578125 264.58226562 126.2578125 268.32226562 C128.82145649 267.70168905 131.38366176 267.07597364 133.9453125 266.44726562 C134.66654297 266.27324219 135.38777344 266.09921875 136.13085938 265.91992188 C136.83662109 265.74589844 137.54238281 265.571875 138.26953125 265.39257812 C139.23572388 265.15692139 139.23572388 265.15692139 140.22143555 264.91650391 C142.62114309 264.21624157 144.93681323 263.25066533 147.2578125 262.32226562 C147.5878125 258.69226563 147.9178125 255.06226563 148.2578125 251.32226562 C146.31712742 251.32226562 144.41496245 252.10344408 142.56640625 252.63476562 Z M112.59765625 258.90820312 C94.83727347 261.1179483 77.12125734 262.34768744 59.2578125 263.32226562 C58.9278125 267.61226562 58.5978125 271.90226562 58.2578125 276.32226562 C67.47033871 276.54231004 76.331593 275.81887851 85.45751953 274.72314453 C87.75340994 274.44779363 90.05033259 274.18301908 92.34765625 273.91992188 C106.31274245 273.51115044 106.31274245 273.51115044 118.2578125 269.32226562 C118.33007752 267.46939061 118.3416247 265.61392685 118.3203125 263.75976562 C118.31128906 262.74785156 118.30226563 261.7359375 118.29296875 260.69335938 C118.28136719 259.91089844 118.26976562 259.1284375 118.2578125 258.32226562 C116.36192243 258.32226562 114.47482951 258.66735047 112.59765625 258.90820312 Z M-13.7421875 260.32226562 C-13.4121875 264.28226563 -13.0821875 268.24226563 -12.7421875 272.32226562 C-7.30034044 273.78197544 -2.03185258 274.81593986 3.5703125 275.38476562 C4.36356934 275.46637939 5.15682617 275.54799316 5.97412109 275.63208008 C13.43142037 276.34078495 20.89924127 276.70789788 28.3828125 277.00976562 C29.52016846 277.05818604 30.65752441 277.10660645 31.8293457 277.15649414 C38.10187289 277.37431913 44.04090608 277.19631272 50.2578125 276.32226562 C50.45178726 274.34372305 50.63782571 272.36440082 50.8203125 270.38476562 C50.92472656 269.28261719 51.02914062 268.18046875 51.13671875 267.04492188 C51.17667969 266.14644531 51.21664062 265.24796875 51.2578125 264.32226562 C49.45916147 262.5236146 46.72284464 263.12771627 44.29296875 263.07617188 C43.0296875 263.04450928 41.76640625 263.01284668 40.46484375 262.98022461 C39.7888916 262.96482635 39.11293945 262.9494281 38.41650391 262.93356323 C26.08996564 262.64661159 13.83533088 262.04320288 1.54711914 260.98266602 C-3.57422225 260.54331387 -8.60159675 260.21396666 -13.7421875 260.32226562 Z M-87.7421875 264.32226562 C-87.6184375 265.58039063 -87.4946875 266.83851563 -87.3671875 268.13476562 C-87.29757812 268.84246094 -87.22796875 269.55015625 -87.15625 270.27929688 C-86.81553359 272.62214705 -86.81553359 272.62214705 -84.7421875 275.32226562 C-82.92043872 276.23067643 -82.92043872 276.23067643 -80.77734375 276.82226562 C-79.58455811 277.19134033 -79.58455811 277.19134033 -78.36767578 277.56787109 C-77.52188965 277.81682129 -76.67610352 278.06577148 -75.8046875 278.32226562 C-74.51667236 278.71309326 -74.51667236 278.71309326 -73.20263672 279.11181641 C-70.7192012 279.86064035 -68.23155373 280.59344175 -65.7421875 281.32226562 C-64.57816406 281.6703125 -63.41414063 282.01835938 -62.21484375 282.37695312 C-57.72226894 283.67111048 -54.5083909 284.32226562 -49.7421875 284.32226562 C-50.0721875 281.02226563 -50.4021875 277.72226562 -50.7421875 274.32226562 C-55.68914203 272.89474843 -60.63706868 271.47067132 -65.5859375 270.04980469 C-67.27013028 269.56572922 -68.95405116 269.08070676 -70.63769531 268.59472656 C-73.05463318 267.89725921 -75.47252121 267.20317834 -77.890625 266.50976562 C-78.6458847 266.29102783 -79.40114441 266.07229004 -80.17929077 265.84692383 C-83.90094388 264.72075472 -83.90094388 264.72075472 -87.7421875 264.32226562 Z M138.05859375 272.27539062 C137.18928223 272.48075439 136.3199707 272.68611816 135.42431641 272.89770508 C134.48249512 273.12031006 133.54067383 273.34291504 132.5703125 273.57226562 C120.87586496 276.29328961 109.10454742 278.38720044 97.2578125 280.32226562 C96.29710816 283.20437865 96.15199367 285.02076606 96.1953125 288.00976562 C96.21614583 289.44726562 96.23697917 290.88476562 96.2578125 292.32226562 C104.59323192 291.88487971 112.53473475 290.31373669 120.63037109 288.3659668 C122.64872552 287.88094161 124.66971784 287.40841439 126.69140625 286.9375 C134.66836921 285.21285805 134.66836921 285.21285805 142.2578125 282.32226562 C143.29551927 279.6986028 143.29551927 279.6986028 143.5703125 276.69726562 C143.71082031 275.694375 143.85132813 274.69148438 143.99609375 273.65820312 C144.08246094 272.88734375 144.16882813 272.11648438 144.2578125 271.32226562 C142.03268166 271.32226562 140.22389808 271.75442201 138.05859375 272.27539062 Z M-42.7421875 276.32226562 C-42.7628125 277.58039063 -42.7834375 278.83851563 -42.8046875 280.13476562 C-42.81628906 280.84246094 -42.82789063 281.55015625 -42.83984375 282.27929688 C-42.82481967 284.52532024 -42.82481967 284.52532024 -41.7421875 287.32226562 C-40.0358225 288.14276674 -40.0358225 288.14276674 -37.88671875 288.56835938 C-36.6325415 288.86190308 -36.6325415 288.86190308 -35.35302734 289.16137695 C-33.96784912 289.45757935 -33.96784912 289.45757935 -32.5546875 289.75976562 C-31.60029785 289.97076904 -30.6459082 290.18177246 -29.66259766 290.39916992 C-15.6070841 293.36332601 -0.13921289 296.32226562 14.2578125 296.32226562 C13.9278125 292.03226563 13.5978125 287.74226563 13.2578125 283.32226562 C12.12988281 283.18127441 11.00195312 283.0402832 9.83984375 282.89501953 C8.25 282.69628906 6.66015625 282.49755859 5.0703125 282.29882812 C4.22041748 282.19259125 3.37052246 282.08635437 2.49487305 281.97689819 C0.6788737 281.74989827 -1.13712565 281.52289836 -2.953125 281.29589844 C-3.87351562 281.18084961 -4.79390625 281.06580078 -5.7421875 280.94726562 C-7.08023438 280.78000977 -7.08023438 280.78000977 -8.4453125 280.609375 C-9.32703125 280.49916016 -10.20875 280.38894531 -11.1171875 280.27539062 C-22.50842285 278.85148621 -22.50842285 278.85148621 -33.8996582 277.42758179 C-34.61081787 277.33868683 -35.32197754 277.24979187 -36.0546875 277.15820312 C-38.28385417 276.87955729 -40.51302083 276.60091146 -42.7421875 276.32226562 Z M-83.7421875 283.32226562 C-83.48631345 285.09532227 -83.21191011 286.8657117 -82.9296875 288.63476562 C-82.77886719 289.62089844 -82.62804687 290.60703125 -82.47265625 291.62304688 C-81.66814648 294.59586103 -81.06080615 295.39354109 -78.7421875 297.32226562 C-76.76105014 298.24968786 -76.76105014 298.24968786 -74.5078125 298.90039062 C-73.63842041 299.17093262 -72.76902832 299.44147461 -71.87329102 299.72021484 C-70.92252686 300.0013916 -69.9717627 300.28256836 -68.9921875 300.57226562 C-67.99952881 300.8702002 -67.00687012 301.16813477 -65.98413086 301.47509766 C-57.16623146 304.04718126 -48.26152103 306.17640301 -39.3046875 308.19726562 C-38.63787964 308.34828735 -37.97107178 308.49930908 -37.28405762 308.65490723 C-30.45871893 310.19095553 -23.70886496 311.63528605 -16.7421875 312.32226562 C-17.2371875 306.38226562 -17.2371875 306.38226562 -17.7421875 300.32226562 C-22.50428999 298.589222 -27.27310019 297.60041225 -32.2421875 296.69726562 C-41.39280262 294.95449973 -50.37682422 292.67707982 -59.3671875 290.25976562 C-60.63498047 289.91929199 -61.90277344 289.57881836 -63.20898438 289.22802734 C-70.08566888 287.36173222 -76.93201315 285.4186923 -83.7421875 283.32226562 Z M81.96484375 281.72460938 C62.08812269 283.56141354 42.20519612 283.94592876 22.2578125 284.32226562 C22.2578125 288.28226563 22.2578125 292.24226563 22.2578125 296.32226562 C38.44786796 298.67029706 54.86104686 297.48580918 71.0703125 295.88476562 C71.75715118 295.81737183 72.44398987 295.74997803 73.15164185 295.68054199 C80.81653217 295.06130817 80.81653217 295.06130817 88.2578125 293.32226562 C88.2578125 289.36226562 88.2578125 285.40226562 88.2578125 281.32226562 C86.13004086 281.32226562 84.08303393 281.51666364 81.96484375 281.72460938 Z M129.6953125 293.25976562 C128.90189453 293.44216797 128.10847656 293.62457031 127.29101562 293.8125 C123.46320343 294.4289889 123.46320343 294.4289889 120.2578125 296.32226562 C120.02494242 298.0041051 119.84517084 299.69350722 119.6953125 301.38476562 C119.61152344 302.30386719 119.52773438 303.22296875 119.44140625 304.16992188 C119.38082031 304.88019531 119.32023438 305.59046875 119.2578125 306.32226562 C121.42753103 307.69497031 121.42753103 307.69497031 124.62890625 306.28320312 C125.98769708 305.7631556 127.3430637 305.2340944 128.6953125 304.69726562 C129.7172168 304.32408203 129.7172168 304.32408203 130.75976562 303.94335938 C134.03427369 302.65408196 136.03824137 301.61073053 138.1875 298.78710938 C139.27261474 296.28817726 139.87315228 294.01488717 140.2578125 291.32226562 C136.66366202 291.32226562 133.18047831 292.437551 129.6953125 293.25976562 Z M106.2578125 295.32226562 C107.2578125 297.32226562 107.2578125 297.32226562 107.2578125 297.32226562 Z M100.9453125 299.12695312 C99.71377441 299.29743164 98.48223633 299.46791016 97.21337891 299.64355469 C95.90804199 299.8262793 94.60270508 300.00900391 93.2578125 300.19726562 C80.94946961 301.89313984 68.64022699 303.28356419 56.2578125 304.32226562 C55.9278125 308.28226563 55.5978125 312.24226563 55.2578125 316.32226562 C74.12670779 317.03880595 93.00368632 313.9149385 111.2578125 309.32226562 C111.5878125 305.69226563 111.9178125 302.06226563 112.2578125 298.32226562 C108.29891567 298.32226562 104.83638218 298.5776996 100.9453125 299.12695312 Z M-9.7421875 301.32226562 C-9.4121875 305.28226563 -9.0821875 309.24226563 -8.7421875 313.32226562 C-0.26112592 314.88820252 8.08584693 315.8160347 16.69360352 316.32763672 C18.69009725 316.44695394 20.68588136 316.57795461 22.68164062 316.70898438 C30.88498924 317.22042521 39.03931929 317.43234643 47.2578125 317.32226562 C47.92242266 314.14639493 48.37535636 311.25735324 48.3203125 308.00976562 C48.2996875 306.79289062 48.2790625 305.57601563 48.2578125 304.32226562 C46.8968042 304.33858032 46.8968042 304.33858032 45.50830078 304.35522461 C36.34151141 304.41697957 27.27998888 304.0516487 18.1328125 303.38476562 C16.87855469 303.29775391 15.62429688 303.21074219 14.33203125 303.12109375 C6.30433657 302.55957107 -1.71917513 301.94677781 -9.7421875 301.32226562 Z M-77.7421875 305.32226562 C-75.62614351 313.1713056 -75.62614351 313.1713056 -69.78515625 318.56445312 C-62.96102709 322.20851546 -52.6416149 327.32226562 -44.7421875 327.32226562 C-44.85706498 325.73816569 -44.98453258 324.154976 -45.1171875 322.57226562 C-45.22160156 321.2496875 -45.22160156 321.2496875 -45.328125 319.90039062 C-45.77525747 317.11635825 -46.11168895 315.62548736 -47.7421875 313.32226562 C-50.80752684 312.02412141 -50.80752684 312.02412141 -54.5 311.18164062 C-55.16305145 311.00973206 -55.82610291 310.83782349 -56.50924683 310.66070557 C-58.62499024 310.11589097 -60.74562109 309.59389142 -62.8671875 309.07226562 C-64.30376543 308.70656771 -65.73996939 308.33939734 -67.17578125 307.97070312 C-70.69374002 307.07077345 -74.21643218 306.19121411 -77.7421875 305.32226562 Z M125.99609375 312.52929688 C125.13089111 312.78493408 124.26568848 313.04057129 123.37426758 313.30395508 C122.4489624 313.57812256 121.52365723 313.85229004 120.5703125 314.13476562 C112.75800101 316.41840557 105.0041799 318.33521577 96.99609375 319.77929688 C94.30839813 320.18667882 94.30839813 320.18667882 92.2578125 321.32226562 C92.2578125 324.62226562 92.2578125 327.92226563 92.2578125 331.32226562 C105.79853305 330.58368087 119.2065077 326.71967513 129.2578125 317.32226562 C131.66845677 314.66549879 131.66845677 314.66549879 132.2578125 311.32226562 C129.94361999 311.32226562 128.21513784 311.8632371 125.99609375 312.52929688 Z M-37.7421875 316.32226562 C-37.62836097 318.28128016 -37.50077625 320.23949943 -37.3671875 322.19726562 C-37.29757812 323.2878125 -37.22796875 324.37835937 -37.15625 325.50195312 C-37.00965259 328.45273037 -37.00965259 328.45273037 -34.7421875 330.32226562 C-32.62577918 330.93916017 -32.62577918 330.93916017 -30.140625 331.32226562 C-29.18607422 331.48629883 -28.23152344 331.65033203 -27.24804688 331.81933594 C-25.69827148 332.06828613 -25.69827148 332.06828613 -24.1171875 332.32226562 C-23.06080078 332.4959668 -22.00441406 332.66966797 -20.91601562 332.84863281 C-9.57853857 334.63329769 1.81152947 335.56776787 13.2578125 336.32226562 C14.62202281 333.59384501 14.13588461 331.71273245 13.8203125 328.69726562 C13.66755859 327.19292969 13.66755859 327.19292969 13.51171875 325.65820312 C13.42792969 324.88734375 13.34414063 324.11648438 13.2578125 323.32226562 C7.44142438 322.48424982 1.62476727 321.64813458 -4.19213867 320.8137207 C-6.16779828 320.53005363 -8.14338556 320.24588232 -10.11889648 319.96118164 C-12.97099897 319.55024283 -15.82336326 319.14116426 -18.67578125 318.73242188 C-19.54802841 318.60634048 -20.42027557 318.48025909 -21.31895447 318.35035706 C-26.78476674 317.56938634 -32.25176031 316.90645677 -37.7421875 316.32226562 Z M72.77734375 322.78710938 C62.85068355 323.58716856 52.89857059 323.68364825 42.9453125 323.88476562 C40.93293564 323.92805824 38.92056574 323.97167554 36.90820312 324.015625 C32.02481169 324.12157974 27.1413473 324.223148 22.2578125 324.32226562 C21.36335546 328.40014458 21.17585132 332.14224567 21.2578125 336.32226562 C42.48243525 336.75447129 63.16336261 335.69768137 84.2578125 333.32226562 C84.2578125 329.69226563 84.2578125 326.06226563 84.2578125 322.32226562 C80.3922394 322.28000534 76.62477579 322.42631944 72.77734375 322.78710938 Z " fill="#000000" transform="translate(357.7421875,314.677734375)"/>
<path d="M0 0 C0.93457031 0.00966797 1.86914062 0.01933594 2.83203125 0.02929688 C3.80011719 0.05443359 4.76820313 0.07957031 5.765625 0.10546875 C7.24095703 0.12577148 7.24095703 0.12577148 8.74609375 0.14648438 C11.16982915 0.18178149 13.59244645 0.23108821 16.015625 0.29296875 C16.015625 1.28296875 16.015625 2.27296875 16.015625 3.29296875 C13.95506253 4.91364876 11.9494135 6.31191152 9.7421875 7.70703125 C9.10324554 8.12213959 8.46430359 8.53724792 7.80599976 8.9649353 C5.75710196 10.29255259 3.69904984 11.60518312 1.640625 12.91796875 C0.25980888 13.81025808 -1.12040764 14.70347601 -2.5 15.59765625 C-14.61366597 23.42683602 -14.61366597 23.42683602 -19.609375 23.35546875 C-20.83527344 23.34193359 -20.83527344 23.34193359 -22.0859375 23.328125 C-22.71242188 23.31652344 -23.33890625 23.30492187 -23.984375 23.29296875 C-23.984375 18.82985008 -23.74014959 18.53540924 -20.84375 15.5078125 C-19.85568359 14.46463867 -19.85568359 14.46463867 -18.84765625 13.40039062 C-18.15027344 12.68431641 -17.45289063 11.96824219 -16.734375 11.23046875 C-16.05246094 10.51052734 -15.37054687 9.79058594 -14.66796875 9.04882812 C-5.9106263 -0.10812121 -5.9106263 -0.10812121 0 0 Z " fill="#000000" transform="translate(987.984375,349.70703125)"/>
<path d="M0 0 C12.50249107 10.359838 20.28199923 21.24749396 22.375 37.75 C23.45417623 55.67537203 21.21866101 71.93898422 9.125 86.0625 C-1.96060138 97.63089138 -15.41869111 103.58052219 -31.4375 104 C-33.16789421 103.94806084 -34.89744392 103.86185615 -36.625 103.75 C-37.69621094 103.68167969 -38.76742187 103.61335938 -39.87109375 103.54296875 C-54.32906328 102.07621822 -65.9382351 95.50408791 -75.625 84.75 C-85.78760224 71.48981963 -87.89860045 54.95792062 -86.625 38.75 C-84.23691163 22.61934754 -76.82941274 9.62737611 -63.75 -0.125 C-45.51300504 -12.08599206 -17.84630439 -13.39235492 0 0 Z M-53.625 7.75 C-63.29875589 18.82418826 -64.81122969 32.33629084 -64.875 46.4375 C-64.895625 47.55833984 -64.91625 48.67917969 -64.9375 49.83398438 C-64.99594169 62.42086254 -62.02794662 75.49565975 -53.48046875 85.1796875 C-47.27477152 90.95193739 -41.252832 94.33252426 -32.625 94.75 C-24.02954972 94.23783586 -17.01570728 92.7655443 -10.625 86.75 C0.88442595 73.71802667 1.0860718 55.99929733 0.55859375 39.58154297 C-0.06938859 29.89625154 -3.2043586 20.79296467 -8.625 12.75 C-9.2025 11.863125 -9.78 10.97625 -10.375 10.0625 C-22.34115344 -2.23604659 -40.582983 -3.91522058 -53.625 7.75 Z " fill="#000000" transform="translate(1001.625,387.25)"/>
<path d="M0 0 C11.37058069 10.64667726 16.99333966 24.62456161 18.09765625 39.96875 C18.55712536 56.42973034 13.84905629 71.87389412 2.79296875 84.1953125 C-8.35593488 95.10385834 -22.20579006 99.70647859 -37.625 100.125 C-53.53628809 99.75869696 -67.15147843 95.07743794 -78.421875 83.51953125 C-89.44283456 70.48911102 -92.89175003 55.05174133 -91.9140625 38.25 C-89.99737975 22.04860622 -83.2459675 8.24800809 -70.6796875 -2.33984375 C-49.31105905 -17.27174467 -19.94419545 -16.87122274 0 0 Z M-59.4375 5 C-70.20700732 18.97290185 -71.67203466 37.59037213 -69.69921875 54.53125 C-67.50479956 66.48612265 -62.97409814 77.3788372 -53.53125 85.32421875 C-45.39621505 90.5670903 -37.46709836 90.84333201 -28.125 89.875 C-20.20643938 87.59372453 -15.24709769 82.89379868 -10.98046875 76.03515625 C-2.18730829 59.93082866 -2.28411887 39.27347899 -6.90234375 21.9609375 C-10.0830677 12.2686027 -15.20606768 4.06419699 -24.125 -1.125 C-36.12204361 -5.94784586 -50.30484793 -4.54672698 -59.4375 5 Z " fill="#000000" transform="translate(1304.125,391.125)"/>
<path d="M0 0 C23.76 0 47.52 0 72 0 C74.25 12.375 74.25 12.375 74.625 17.6875 C74.73714844 19.20923828 74.73714844 19.20923828 74.8515625 20.76171875 C74.90054688 21.50035156 74.94953125 22.23898437 75 23 C72.69 23 70.38 23 68 23 C67.63648438 22.22914063 67.27296875 21.45828125 66.8984375 20.6640625 C66.39570312 19.66117187 65.89296875 18.65828125 65.375 17.625 C64.88773438 16.62726563 64.40046875 15.62953125 63.8984375 14.6015625 C61.49842185 11.31265216 59.88485324 11.0451163 56 10 C53.98982326 9.72263189 51.96927159 9.5132464 49.9453125 9.3671875 C48.94516113 9.29097168 47.94500977 9.21475586 46.91455078 9.13623047 C45.66399902 9.05002441 44.41344727 8.96381836 43.125 8.875 C39.12375 8.58625 35.1225 8.2975 31 8 C31 21.2 31 34.4 31 48 C42.68696667 47.85686441 42.68696667 47.85686441 54 45 C55.55150581 42.09889668 56.36451021 39.21716706 57 36 C59.31 36 61.62 36 64 36 C63.67 46.89 63.34 57.78 63 69 C61.35 69 59.7 69 58 69 C57.75765625 68.38511719 57.5153125 67.77023437 57.265625 67.13671875 C56.93046875 66.32847656 56.5953125 65.52023437 56.25 64.6875 C55.76273438 63.48673828 55.76273438 63.48673828 55.265625 62.26171875 C53.71355535 59.4881128 52.84195131 58.47493675 50 57 C46.76797093 56.35937371 43.53162581 56.07667815 40.25 55.8125 C39.36183594 55.73064453 38.47367188 55.64878906 37.55859375 55.56445312 C35.37315929 55.36470912 33.18737551 55.1769855 31 55 C31.06921215 59.714456 31.15733758 64.42805324 31.26245117 69.1418457 C31.29555592 70.74298519 31.32363221 72.34423732 31.34643555 73.94555664 C31.38024982 76.25715817 31.43257451 78.56774078 31.48828125 80.87890625 C31.49467117 81.58648575 31.5010611 82.29406525 31.50764465 83.02308655 C31.65532192 88.09764694 32.65275349 91.58000431 35 96 C38.86960383 98.57973588 42.136018 98.34333653 46.625 98.3125 C47.84352661 98.30621582 47.84352661 98.30621582 49.08666992 98.29980469 C56.17545373 98.16606747 61.54206899 97.01042501 67.6875 93.4375 C71.18957491 89.74612375 73.53907375 85.43135861 76 81 C78.9375 81.375 78.9375 81.375 82 82 C83.41801435 84.83602871 82.52686754 86.19271362 81.6015625 89.19140625 C81.12976563 90.73151367 81.12976563 90.73151367 80.6484375 92.30273438 C80.14183594 93.91631836 80.14183594 93.91631836 79.625 95.5625 C79.295 96.64208984 78.965 97.72167969 78.625 98.83398438 C76.14439974 106.85560026 76.14439974 106.85560026 75 108 C72.69946165 108.09443335 70.39597827 108.11742128 68.09350586 108.11352539 C67.37159561 108.11367142 66.64968536 108.11381744 65.90589905 108.1139679 C63.50885053 108.11326869 61.11187877 108.10547595 58.71484375 108.09765625 C57.05717511 108.0957921 55.39950593 108.09436818 53.74183655 108.09336853 C49.37045786 108.08954312 44.99911219 108.07971265 40.62774658 108.06866455 C36.17045539 108.05845092 31.71315889 108.05387101 27.25585938 108.04882812 C18.50389107 108.0380904 9.75194964 108.02101371 1 108 C0.67 105.36 0.34 102.72 0 100 C0.63808594 99.80664062 1.27617188 99.61328125 1.93359375 99.4140625 C3.17302734 99.02347656 3.17302734 99.02347656 4.4375 98.625 C5.26121094 98.36976563 6.08492187 98.11453125 6.93359375 97.8515625 C9.17798016 97.19117773 9.17798016 97.19117773 10 95 C10.10325128 92.52955726 10.14681442 90.08711405 10.14526367 87.61621094 C10.14862228 86.85502457 10.1519809 86.0938382 10.15544128 85.30958557 C10.16496626 82.78449892 10.16689542 80.25947852 10.16796875 77.734375 C10.17118118 75.98040743 10.17454524 74.22644014 10.17805481 72.47247314 C10.18405059 68.79039896 10.18589434 65.10834826 10.18530273 61.42626953 C10.1852013 56.71415958 10.19883249 52.00220094 10.21607494 47.2901268 C10.22721127 43.66466586 10.22922141 40.03924125 10.22869301 36.41376495 C10.22987147 34.67708059 10.23428574 32.94039524 10.24202538 31.20372772 C10.25185451 28.76950105 10.24893534 26.33559942 10.24291992 23.90136719 C10.24853943 23.18737259 10.25415894 22.47337799 10.25994873 21.73774719 C10.23318662 17.46246012 9.70517252 13.93352323 8 10 C5.8714152 8.65055364 5.8714152 8.65055364 3.375 8.125 C2.55773437 7.90070313 1.74046875 7.67640625 0.8984375 7.4453125 C0.27195312 7.29835938 -0.35453125 7.15140625 -1 7 C-0.67 4.69 -0.34 2.38 0 0 Z " fill="#000000" transform="translate(573,381)"/>
<path d="M0 0 C10.89 0 21.78 0 33 0 C38.12783985 12.71704282 43.15242093 25.47166272 48.125 38.25 C48.42005432 39.00728394 48.71510864 39.76456787 49.019104 40.5447998 C50.73973255 44.96245242 52.45314499 49.38279247 54.15588379 53.80737305 C54.73035 55.29957291 55.30616733 56.79125317 55.88317871 58.2824707 C56.73728902 60.49362402 57.58442822 62.70732542 58.4296875 64.921875 C58.6893631 65.59140198 58.9490387 66.26092896 59.21658325 66.95074463 C60.29424528 69.79426603 61 71.92954979 61 75 C61.66 75 62.32 75 63 75 C63.17582108 74.38747879 63.35164215 73.77495758 63.53279114 73.14387512 C65.27899479 67.17760509 67.27290201 61.37175029 69.51171875 55.57421875 C69.84363724 54.70593948 70.17555573 53.83766022 70.51753235 52.94306946 C71.57083199 50.18991324 72.62902204 47.43866893 73.6875 44.6875 C74.3772872 42.88749778 75.0667424 41.08736829 75.75585938 39.28710938 C76.78776441 36.59174504 77.82039355 33.89667281 78.85568237 31.2026062 C80.67308375 26.47284601 82.47915596 21.73915263 84.26806641 16.99853516 C84.81851372 15.5427581 84.81851372 15.5427581 85.38008118 14.05757141 C86.08575425 12.18975091 86.78927482 10.32111543 87.49040222 8.45158386 C87.80528091 7.61911636 88.12015961 6.78664886 88.44458008 5.92895508 C88.8600988 4.82418571 88.8600988 4.82418571 89.28401184 3.69709778 C90 2 90 2 91 1 C93.3616582 0.82789074 95.69718602 0.71631802 98.0625 0.6484375 C99.12223022 0.61370834 99.12223022 0.61370834 100.20336914 0.57827759 C101.69963262 0.53058471 103.19597638 0.48535719 104.69238281 0.44238281 C106.99053548 0.37527637 109.28815923 0.29754223 111.5859375 0.21875 C113.0364386 0.17383733 114.48695909 0.12954553 115.9375 0.0859375 C116.6291626 0.06203949 117.3208252 0.03814148 118.03344727 0.01351929 C119.68839146 -0.03028098 121.34460329 -0.02050604 123 0 C124 1 124 1 124.0625 4.0625 C124.041875 5.031875 124.02125 6.00125 124 7 C123.36191406 7.26554687 122.72382812 7.53109375 122.06640625 7.8046875 C121.24011719 8.15789062 120.41382813 8.51109375 119.5625 8.875 C118.73878906 9.22304688 117.91507813 9.57109375 117.06640625 9.9296875 C114.84253285 10.8244937 114.84253285 10.8244937 114 13 C113.88542311 15.47087547 113.8408163 17.90357799 113.8515625 20.375 C113.85370758 21.15883057 113.85585266 21.94266113 113.85806274 22.75024414 C113.95072571 33.61475022 114.57036686 44.46118529 115.171875 55.30712891 C115.37614074 59.02073898 115.56733353 62.73487889 115.7578125 66.44921875 C115.88723415 68.84118853 116.01741541 71.23311735 116.1484375 73.625 C116.20373627 74.71997803 116.25903503 75.81495605 116.31600952 76.94311523 C116.71261951 86.64364254 116.71261951 86.64364254 119 96 C121.3178166 97.83935519 123.05292544 98.22445406 126 99 C126.99 99.33 127.98 99.66 129 100 C128.67 102.64 128.34 105.28 128 108 C114.14 108 100.28 108 86 108 C86 105.36 86 102.72 86 100 C86.55429687 99.81824219 87.10859375 99.63648438 87.6796875 99.44921875 C88.40414062 99.19785156 89.12859375 98.94648438 89.875 98.6875 C90.59429688 98.44386719 91.31359375 98.20023437 92.0546875 97.94921875 C94.33994905 97.03664453 94.33994905 97.03664453 96 94 C96.27061664 91.01925579 96.27061664 91.01925579 96.16821289 87.64550781 C96.14993439 86.38919556 96.13165588 85.1328833 96.11282349 83.83850098 C95.94440947 78.10868909 95.65842301 72.39324232 95.30859375 66.671875 C95.1672522 64.22005586 95.02597802 61.76823283 94.88476562 59.31640625 C94.66033424 55.50428953 94.43405201 51.69229079 94.20629883 47.88037109 C93.98577657 44.16529201 93.77185878 40.44987664 93.55859375 36.734375 C93.48781113 35.58555847 93.4170285 34.43674194 93.34410095 33.25311279 C93.28396317 32.19731018 93.22382538 31.14150757 93.16186523 30.05371094 C93.10634995 29.12330994 93.05083466 28.19290894 92.99363708 27.23431396 C93 25 93 25 94 23 C93.34 23 92.68 23 92 23 C91.75781738 23.87942261 91.75781738 23.87942261 91.51074219 24.77661133 C89.54812928 31.63031872 87.00402536 38.118002 84.25 44.6875 C79.31578601 56.61838172 74.62148149 68.63240913 70 80.6875 C69.67326294 81.53919769 69.34652588 82.39089539 69.0098877 83.2684021 C65.9802466 91.16920654 62.96472877 99.0745811 60 107 C58.02 107 56.04 107 54 107 C48.01477366 92.43794977 42.12443132 77.84408579 36.375 63.1875 C32.55674738 53.45555553 28.71217846 43.7370765 24.75 34.0625 C24.3792334 33.15717529 24.0084668 32.25185059 23.62646484 31.3190918 C21.91447378 27.11383581 21.91447378 27.11383581 20 23 C19.24569663 25.73245207 18.83801926 28.26715031 18.70288086 31.09643555 C18.66295013 31.89715485 18.62301941 32.69787415 18.58187866 33.52285767 C18.54325714 34.38543182 18.50463562 35.24800598 18.46484375 36.13671875 C18.42154938 37.04118744 18.378255 37.94565613 18.33364868 38.87753296 C18.19564255 41.81395313 18.06523214 44.75061564 17.9375 47.6875 C17.89430634 48.67998749 17.85111267 49.67247498 17.80661011 50.69503784 C17.51647099 57.46259614 17.25157005 64.23090811 17 71 C16.97039185 71.7693689 16.94078369 72.53873779 16.91027832 73.3314209 C16.74932809 77.57494034 16.63578923 81.81661044 16.5625 86.0625 C16.52825928 87.05789795 16.49401855 88.0532959 16.45874023 89.07885742 C16.44325499 91.49651881 16.45652836 93.64536402 17 96 C20.06557322 98.70911122 22.99006543 99.4271522 27 100 C27 102.64 27 105.28 27 108 C16.77 108 6.54 108 -4 108 C-4 105.36 -4 102.72 -4 100 C-2.329375 99.5978125 -2.329375 99.5978125 -0.625 99.1875 C3.21840951 98.34190981 3.21840951 98.34190981 5 95 C5.84499828 91.66224929 6.18397715 88.3947495 6.38891602 84.96386719 C6.4788961 83.49382233 6.4788961 83.49382233 6.57069397 81.99407959 C6.63115402 80.93900208 6.69161407 79.88392456 6.75390625 78.796875 C6.81907944 77.6868512 6.88425262 76.57682739 6.95140076 75.4331665 C7.08854883 73.07290361 7.2237567 70.71252729 7.35717773 68.35205078 C7.5578343 64.83185218 7.76974364 61.31245853 7.98242188 57.79296875 C8.66100972 46.18087304 9.1470892 34.58617482 9.21484375 22.953125 C9.22616837 21.89317322 9.23749298 20.83322144 9.24916077 19.7411499 C9.24806808 18.76599426 9.2469754 17.79083862 9.24584961 16.78613281 C9.24717392 15.93110168 9.24849823 15.07607056 9.24986267 14.19512939 C9.13628821 11.70930561 9.13628821 11.70930561 7 9 C5.04614933 8.21011855 5.04614933 8.21011855 2.875 7.8125 C0.956875 7.4103125 0.956875 7.4103125 -1 7 C-0.67 4.69 -0.34 2.38 0 0 Z " fill="#000000" transform="translate(670,381)"/>
<path d="M0 0 C1.48619524 1.67654537 2.77263394 3.37024626 4.0234375 5.2265625 C4.6009375 5.9896875 5.1784375 6.7528125 5.7734375 7.5390625 C9.75121289 16.09127958 9.91268426 25.70660764 7.3046875 34.70703125 C3.82277973 43.42680889 -2.53112696 50.15381041 -10.9765625 54.2265625 C-15.21358984 55.85124333 -19.08197265 56.6233072 -23.6015625 56.9765625 C-24.70757813 57.07453125 -25.81359375 57.1725 -26.953125 57.2734375 C-32.36194814 57.4420091 -37.68490918 56.2248228 -42.9765625 55.2265625 C-42.93242672 59.58725405 -42.86261638 63.94655074 -42.76904297 68.30639648 C-42.74082709 69.78935192 -42.71961548 71.27245793 -42.70556641 72.75561523 C-42.6841433 74.88864247 -42.63750468 77.01985856 -42.5859375 79.15234375 C-42.56499023 80.43536377 -42.54404297 81.71838379 -42.52246094 83.0402832 C-42.28046642 86.28194103 -42.28046642 86.28194103 -40.09960938 88.12304688 C-37.6360655 89.40354576 -35.46065456 89.94638886 -32.7265625 90.4140625 C-31.38851562 90.65189453 -31.38851562 90.65189453 -30.0234375 90.89453125 C-29.34796875 91.00410156 -28.6725 91.11367188 -27.9765625 91.2265625 C-28.3065625 94.1965625 -28.6365625 97.1665625 -28.9765625 100.2265625 C-43.8265625 99.8965625 -58.6765625 99.5665625 -73.9765625 99.2265625 C-75.33095918 96.51776915 -75.04157701 94.21722982 -74.9765625 91.2265625 C-74.35007812 91.06800781 -73.72359375 90.90945313 -73.078125 90.74609375 C-71.85222656 90.39611328 -71.85222656 90.39611328 -70.6015625 90.0390625 C-69.38339844 89.70841797 -69.38339844 89.70841797 -68.140625 89.37109375 C-65.81679848 88.40117654 -65.81679848 88.40117654 -64.85847473 86.12158203 C-63.79385401 82.62679234 -63.68882122 79.37823137 -63.7019043 75.76171875 C-63.69679337 75.02774872 -63.69168243 74.29377869 -63.68641663 73.53756714 C-63.67256295 71.12131505 -63.67347392 68.70534948 -63.67578125 66.2890625 C-63.67189251 64.60424697 -63.66755747 62.91943243 -63.66279602 61.23461914 C-63.65534329 57.70748716 -63.65561859 54.1804553 -63.66088867 50.65332031 C-63.6666876 46.13727682 -63.64973766 41.62164289 -63.626544 37.10566711 C-63.61180221 33.62778332 -63.61093546 30.14999813 -63.61405373 26.67208862 C-63.61354092 25.00714302 -63.60831079 23.34219184 -63.59824181 21.67727661 C-63.58588334 19.34838317 -63.59266452 17.02028725 -63.60424805 14.69140625 C-63.59660431 14.00658173 -63.58896057 13.3217572 -63.58108521 12.61618042 C-63.62812221 8.33030865 -64.35606643 5.63558218 -66.9765625 2.2265625 C-69.20513496 1.00484534 -69.20513496 1.00484534 -71.6640625 0.4140625 C-72.87642578 0.06408203 -72.87642578 0.06408203 -74.11328125 -0.29296875 C-74.72816406 -0.45152344 -75.34304688 -0.61007812 -75.9765625 -0.7734375 C-75.9765625 -3.4134375 -75.9765625 -6.0534375 -75.9765625 -8.7734375 C-70.76624551 -8.91777399 -65.55587878 -9.06010697 -60.34545898 -9.20068359 C-58.57754077 -9.24865224 -56.80963663 -9.29714283 -55.04174805 -9.34619141 C-11.75344879 -10.54558449 -11.75344879 -10.54558449 0 0 Z M-42.9765625 -0.7734375 C-42.9765625 15.0665625 -42.9765625 30.9065625 -42.9765625 47.2265625 C-36.58062583 48.82554667 -29.93580442 49.1581757 -23.6015625 47.1640625 C-17.21574465 42.45072075 -13.49179428 37.06569549 -11.9765625 29.2265625 C-10.95442999 20.72141047 -12.23011438 12.35053472 -17.37890625 5.30859375 C-24.17006987 -1.41615263 -34.04265783 -2.26242161 -42.9765625 -0.7734375 Z " fill="#000000" transform="translate(887.9765625,389.7734375)"/>
<path d="M0 0 C6.63654169 7.06515168 8.69849387 13.56252561 8.40625 23.21875 C7.54650032 30.79040909 4.62751181 36.64318428 -1 41.7734375 C-4.9592996 44.7828245 -8.89503355 47.24609375 -13.9375 47.24609375 C-11.81144474 50.75122234 -9.67895853 54.2523531 -7.54101562 57.75024414 C-6.8179812 58.93509282 -6.0965657 60.12093129 -5.37695312 61.30786133 C4.62123149 79.75310062 4.62123149 79.75310062 21.0625 91.24609375 C23.0549325 91.62202441 25.0543674 91.9658892 27.0625 92.24609375 C27.1875 97.99609375 27.1875 97.99609375 26.0625 100.24609375 C18.75282957 103.0928247 6.75718948 102.31024423 -0.5625 99.74609375 C-9.55422417 95.1531765 -14.20007099 85.91187367 -19 77.43359375 C-19.58587891 76.41716797 -20.17175781 75.40074219 -20.77539062 74.35351562 C-24.19275386 68.4025246 -27.48945422 62.40062344 -30.67358398 56.3215332 C-31.76909648 54.10891597 -31.76909648 54.10891597 -33.9375 53.24609375 C-35.47418865 53.02141544 -37.01718054 52.8381257 -38.5625 52.68359375 C-39.37976562 52.59980469 -40.19703125 52.51601563 -41.0390625 52.4296875 C-41.97878906 52.33880859 -41.97878906 52.33880859 -42.9375 52.24609375 C-42.86857152 57.01548785 -42.78058144 61.78400951 -42.67504883 66.55273438 C-42.64183165 68.17438061 -42.61378965 69.79614156 -42.59106445 71.41796875 C-42.55745845 73.75179852 -42.5051424 76.0845801 -42.44921875 78.41796875 C-42.44282883 79.1410321 -42.4364389 79.86409546 -42.42985535 80.60906982 C-42.34045353 83.68216353 -42.10747079 85.93121258 -40.63598633 88.65722656 C-38.08952094 91.03934482 -35.27729582 91.48991357 -31.9375 92.24609375 C-31.89508277 94.5790415 -31.89657063 96.91311942 -31.9375 99.24609375 C-32.9375 100.24609375 -32.9375 100.24609375 -36.72290039 100.35961914 C-38.41032729 100.35945997 -40.09775905 100.35376292 -41.78515625 100.34375 C-43.11479652 100.34162758 -43.11479652 100.34162758 -44.47129822 100.33946228 C-47.31423254 100.3338459 -50.15708931 100.32129066 -53 100.30859375 C-54.92252491 100.30358086 -56.84505104 100.29901759 -58.76757812 100.29492188 C-63.49091549 100.28387116 -68.21419458 100.26659558 -72.9375 100.24609375 C-73.2675 97.60609375 -73.5975 94.96609375 -73.9375 92.24609375 C-73.29941406 91.99214844 -72.66132812 91.73820312 -72.00390625 91.4765625 C-71.17761719 91.13238281 -70.35132813 90.78820312 -69.5 90.43359375 C-68.67628906 90.09714844 -67.85257813 89.76070313 -67.00390625 89.4140625 C-64.60377512 88.36206287 -64.60377512 88.36206287 -63.9375 85.24609375 C-63.83661264 82.79876645 -63.79065134 80.37986224 -63.79223633 77.93237305 C-63.78887772 77.19054779 -63.7855191 76.44872253 -63.78205872 75.68441772 C-63.77255284 73.22969898 -63.77060565 70.77504851 -63.76953125 68.3203125 C-63.76631792 66.61261466 -63.76295379 64.9049171 -63.75944519 63.19721985 C-63.75345448 59.61527875 -63.75160518 56.03336177 -63.75219727 52.45141602 C-63.75229877 47.86824848 -63.73865834 43.28523628 -63.72142506 38.70210552 C-63.71028848 35.17358189 -63.70827858 31.64509557 -63.70880699 28.11655617 C-63.70762892 26.42732013 -63.70321687 24.73808307 -63.69547462 23.04886436 C-63.68564326 20.68179947 -63.68856532 18.31506868 -63.69458008 15.94799805 C-63.68615082 14.90741493 -63.68615082 14.90741493 -63.67755127 13.84580994 C-63.70475821 9.61798783 -64.27689517 6.14285487 -65.9375 2.24609375 C-67.83221006 0.90757238 -67.83221006 0.90757238 -70.0625 0.37109375 C-71.14917969 0.03464844 -71.14917969 0.03464844 -72.2578125 -0.30859375 C-72.81210938 -0.45554687 -73.36640625 -0.6025 -73.9375 -0.75390625 C-73.9375 -3.06390625 -73.9375 -5.37390625 -73.9375 -7.75390625 C-72.91914062 -7.74230469 -71.90078125 -7.73070312 -70.8515625 -7.71875 C-63.1905896 -7.66015747 -55.58445428 -7.76885076 -47.9375 -8.25390625 C-11.53732757 -10.44407274 -11.53732757 -10.44407274 0 0 Z M-41.9375 0.24609375 C-43.46834425 1.776938 -43.06465779 3.15812519 -43.06689453 5.29101562 C-43.07004669 6.14860474 -43.07319885 7.00619385 -43.07644653 7.88977051 C-43.0744223 8.82204468 -43.07239807 9.75431885 -43.0703125 10.71484375 C-43.07126923 11.66548706 -43.07222595 12.61613037 -43.07321167 13.59558105 C-43.07389357 15.60978257 -43.07203862 17.62398627 -43.06787109 19.63818359 C-43.06252298 22.7327973 -43.06781577 25.82726585 -43.07421875 28.921875 C-43.07355797 30.87369824 -43.07227681 32.82552139 -43.0703125 34.77734375 C-43.07233673 35.70961792 -43.07436096 36.64189209 -43.07644653 37.60241699 C-43.07329437 38.4600061 -43.07014221 39.31759521 -43.06689453 40.20117188 C-43.06609894 40.95982544 -43.06530334 41.718479 -43.06448364 42.50012207 C-43.12671087 44.27486687 -43.12671087 44.27486687 -41.9375 45.24609375 C-34.12796466 45.8924732 -26.25613969 46.47733963 -19.9375 41.24609375 C-14.21221813 35.44379015 -12.46819922 29.93393685 -11.5625 21.93359375 C-12.2138039 15.52910537 -13.84334924 8.56516043 -18.875 4.18359375 C-26.37080882 -0.55865264 -33.31917806 -1.23982383 -41.9375 0.24609375 Z " fill="#000000" transform="translate(1113.9375,388.75390625)"/>
<path d="M0 0 C14.19 0 28.38 0 43 0 C43 2.64 43 5.28 43 8 C42.44570312 8.18175781 41.89140625 8.36351562 41.3203125 8.55078125 C40.59585937 8.80214844 39.87140625 9.05351562 39.125 9.3125 C38.40570312 9.55613281 37.68640625 9.79976563 36.9453125 10.05078125 C34.66005095 10.96335547 34.66005095 10.96335547 33 14 C32.80096167 16.5105741 32.7165891 18.91042962 32.7253418 21.42138672 C32.72023087 22.17457184 32.71511993 22.92775696 32.70985413 23.70376587 C32.69594425 26.1958204 32.69691613 28.68759874 32.69921875 31.1796875 C32.69533214 32.91220198 32.69099755 34.6447155 32.68623352 36.37722778 C32.67876799 40.01046841 32.67906466 43.64361188 32.68432617 47.27685547 C32.6901166 51.92971454 32.67320189 56.582175 32.6499815 61.23496819 C32.63523795 64.81408 32.63437338 68.39309601 32.63749123 71.97223282 C32.63697817 73.68741774 32.63174338 75.40260805 32.62167931 77.11776352 C32.60932212 79.51871239 32.61610218 81.91888744 32.62768555 84.31982422 C32.62004181 85.02649231 32.61239807 85.7331604 32.60452271 86.46124268 C32.65076253 90.80446722 33.34603993 93.54028829 36 97 C37.99693687 98.21143606 37.99693687 98.21143606 40.1875 98.8125 C41.445625 99.204375 42.70375 99.59625 44 100 C43.125 106.875 43.125 106.875 42 108 C38.89748799 108.08874135 35.8173188 108.11518455 32.71484375 108.09765625 C31.78402481 108.0962413 30.85320587 108.09482635 29.8941803 108.09336853 C26.90858809 108.08775172 23.92306971 108.0751964 20.9375 108.0625 C18.91862087 108.05748716 16.89974057 108.05292388 14.88085938 108.04882812 C9.92054428 108.03777683 4.96028468 108.02050095 0 108 C0 105.03 0 102.06 0 99 C0.62648438 98.82984375 1.25296875 98.6596875 1.8984375 98.484375 C2.71570312 98.24203125 3.53296875 97.9996875 4.375 97.75 C5.18710938 97.51796875 5.99921875 97.2859375 6.8359375 97.046875 C9.6201782 95.699986 9.93576069 94.88897048 11 92 C11.19464188 89.51178525 11.28360965 87.13609266 11.2746582 84.64868164 C11.27976913 83.91485764 11.28488007 83.18103363 11.29014587 82.42497253 C11.30402674 80.00328375 11.30308629 77.58188005 11.30078125 75.16015625 C11.30466898 73.47391148 11.30900381 71.78766769 11.31376648 70.10142517 C11.32122542 66.5683169 11.32093976 63.03530856 11.31567383 59.50219727 C11.30987928 54.97827807 11.32681126 50.4547683 11.3500185 45.93091679 C11.36476199 42.44874181 11.36562672 38.9666653 11.36250877 35.48446465 C11.36302167 33.81672797 11.36825342 32.14898574 11.37832069 30.48127937 C11.3906801 28.14748782 11.383897 25.81449204 11.37231445 23.48071289 C11.37995819 22.79431732 11.38760193 22.10792175 11.39547729 21.40072632 C11.34847428 17.1082682 10.6097982 14.42242047 8 11 C6.00306313 9.78856394 6.00306313 9.78856394 3.8125 9.1875 C1.9253125 8.5996875 1.9253125 8.5996875 0 8 C0 5.36 0 2.72 0 0 Z M12 104 C13 106 13 106 13 106 Z " fill="#000000" transform="translate(1154,381)"/>
<path d="M0 0 C2.375 1.1875 2.375 1.1875 4 3 C4.4375 5.5625 4.4375 5.5625 4 8 C0.19470436 10.53686376 -2.53909062 10.59355135 -7 10 C-9.0625 8.8125 -9.0625 8.8125 -10 7 C-9.875 4.4375 -9.875 4.4375 -9 2 C-5.51131349 -0.32579101 -4.10281481 -0.41865457 0 0 Z " fill="#000000" transform="translate(437,463)"/>
<path d="M0 0 C0.9375 3 0.9375 3 1 6 C-1.35953094 8.35953094 -2.77895617 8.49141413 -6 9 C-6 11.64 -6 14.28 -6 17 C-7.65 17.66 -9.3 18.32 -11 19 C-13.892153 16.66761855 -14.92971633 15.25302121 -15.9375 11.625 C-16.00975658 7.43411857 -15.29227443 5.47793363 -13 2 C-8.84518816 -1.88675947 -5.0517275 -3.14026304 0 0 Z " fill="#000000" transform="translate(439,499)"/>
<path d="M0 0 C1 1 1 1 1.1875 3.4375 C1 6 1 6 -1 8 C-3.5 8.3125 -3.5 8.3125 -6 8 C-8 5 -8 5 -7.75 2.375 C-7.5025 1.59125 -7.255 0.8075 -7 0 C-4.31633121 -1.3418344 -2.84719317 -0.73004953 0 0 Z " fill="#000000" transform="translate(400,506)"/>
<path d="M0 0 C2.4375 0.875 2.4375 0.875 3.9375 2.625 C4.4375 4.875 4.4375 4.875 3.4375 7.625 C1.4375 9.875 1.4375 9.875 -1.625 10.3125 C-4.5625 9.875 -4.5625 9.875 -6.5625 7.875 C-6.375 4.875 -6.375 4.875 -5.5625 1.875 C-2.5625 -0.125 -2.5625 -0.125 0 0 Z " fill="#000000" transform="translate(474.5625,510.125)"/>
<path d="M0 0 C2.80587575 1.08809545 3.74805298 2.21372423 5.17578125 4.84375 C5.17578125 6.16375 5.17578125 7.48375 5.17578125 8.84375 C2.34437755 9.66352607 -0.48904777 10.47469274 -3.32421875 11.28125 C-4.11570312 11.51134766 -4.9071875 11.74144531 -5.72265625 11.97851562 C-10.76438335 13.40424993 -15.60930052 14.32345426 -20.82421875 14.84375 C-21.15421875 13.85375 -21.48421875 12.86375 -21.82421875 11.84375 C-18.02039529 8.65228448 -14.09657662 6.02802324 -9.82421875 3.53125 C-9.2209375 3.15935547 -8.61765625 2.78746094 -7.99609375 2.40429688 C-5.17282115 0.75636494 -3.30347247 -0.18276473 0 0 Z " fill="#000000" transform="translate(1245.82421875,520.15625)"/>
<path d="M0 0 C1.42026518 1.05109878 2.81763564 2.13401011 4.1875 3.25 C4.81398438 3.75273438 5.44046875 4.25546875 6.0859375 4.7734375 C14.97870263 12.73420978 18.3847523 23.80898901 19.3671875 35.36328125 C19.76666311 46.43763277 16.01894773 57.57221505 9.1875 66.25 C1.12225582 74.91712807 -8.50957429 79.49413729 -20.3125 80.453125 C-32.62035954 80.68389737 -43.46664377 78.60944207 -52.8125 70.25 C-61.43006257 61.9479166 -65.67946712 52.6062333 -66.14892578 40.64086914 C-66.39574879 27.34210777 -62.90611292 16.02053821 -53.84765625 6.09765625 C-39.9934704 -7.35568516 -16.56665471 -10.48380518 0 0 Z M-42.6875 9.25 C-50.1211574 21.68351949 -50.64614858 36.97505794 -48.15234375 50.94921875 C-45.81167851 58.86289645 -41.45758115 66.35459067 -34.3125 70.8125 C-27.67219861 73.61387715 -19.08233488 73.61845247 -12.27734375 71.4375 C-5.94641109 67.9243813 -2.13342005 62.0083914 0.22265625 55.3046875 C3.9724323 41.10786097 3.63664891 25.9232055 -3.5 12.875 C-6.73130572 7.8709081 -10.95148221 3.51346314 -16.734375 1.62109375 C-26.38342124 -0.10195022 -36.15497807 1.26359362 -42.6875 9.25 Z " fill="#000000" transform="translate(1077.8125,542.75)"/>
<path d="M0 0 C1.23877155 1.04839192 2.44797208 2.13273288 3.625 3.25 C4.23988281 3.82492187 4.85476563 4.39984375 5.48828125 4.9921875 C14.74506145 14.54629469 17.01494533 26.64490923 16.90625 39.51171875 C16.03271633 51.12243708 11.23327819 61.61935608 2.7421875 69.58203125 C-7.15987115 77.3830996 -18.59158913 79.6453017 -30.93359375 79.08984375 C-42.17088079 77.72654509 -51.83304777 73.04673387 -59.03125 64.21875 C-66.33685157 54.04820663 -68.34515986 41.98143877 -66.97265625 29.62890625 C-64.94456162 18.67239503 -60.57464573 8.05195618 -51.375 1.25 C-35.62584345 -8.13432501 -15.96167733 -11.2345652 0 0 Z M-42.625 7.3125 C-50.78451002 17.62861076 -51.22407422 31.68684626 -50.375 44.25 C-49.0598151 53.19994472 -45.30487379 62.54619444 -38 68.25 C-31.41727786 72.32089396 -24.8583999 72.8974649 -17.375 71.25 C-11.50652648 69.254719 -7.69372452 65.37307961 -4.375 60.25 C1.56680852 46.86303383 2.56427395 30.7505487 -2.6015625 16.98046875 C-6.03707539 9.53073358 -9.75957928 4.55771036 -17.125 0.875 C-27.12423858 -1.0479305 -35.35831628 -0.22600481 -42.625 7.3125 Z " fill="#000000" transform="translate(1253.375,543.75)"/>
<path d="M0 0 C6.21409212 7.90884451 8.05302424 13.59763822 7.0625 23.625 C4.54082621 32.13074941 0.14438219 37.32840146 -7.5234375 41.609375 C-13.10309125 43.95680215 -18.42205041 43.65085363 -24.3125 43.1875 C-25.04855469 43.13529297 -25.78460937 43.08308594 -26.54296875 43.02929688 C-28.34160629 42.90082277 -30.13962909 42.76379051 -31.9375 42.625 C-32.0242982 46.41652334 -32.07782207 50.20779296 -32.125 54 C-32.15013672 55.08023438 -32.17527344 56.16046875 -32.20117188 57.2734375 C-32.21083984 58.3046875 -32.22050781 59.3359375 -32.23046875 60.3984375 C-32.2461792 61.35153809 -32.26188965 62.30463867 -32.27807617 63.28662109 C-32.16568604 64.05828613 -32.0532959 64.82995117 -31.9375 65.625 C-28.65286341 67.81475773 -25.73053725 68.62306563 -21.9375 69.625 C-21.9375 71.605 -21.9375 73.585 -21.9375 75.625 C-33.4875 75.625 -45.0375 75.625 -56.9375 75.625 C-56.9375 73.645 -56.9375 71.665 -56.9375 69.625 C-55.803125 69.191875 -54.66875 68.75875 -53.5 68.3125 C-52.324375 67.755625 -51.14875 67.19875 -49.9375 66.625 C-48.87417191 63.43501574 -48.81063749 61.16021728 -48.80810547 57.80834961 C-48.80495331 56.61378647 -48.80180115 55.41922333 -48.79855347 54.1884613 C-48.8005777 52.89779251 -48.80260193 51.60712372 -48.8046875 50.27734375 C-48.80401389 48.94120771 -48.80304338 47.60507178 -48.80178833 46.26893616 C-48.80031456 43.47053865 -48.80245595 40.67217309 -48.80712891 37.8737793 C-48.81283154 34.28346438 -48.80954181 30.69322414 -48.80355644 27.10291195 C-48.79994688 24.34488866 -48.80109114 21.58688315 -48.80368423 18.82885933 C-48.80467728 16.86010311 -48.80163634 14.89134621 -48.79855347 12.92259216 C-48.80170563 11.73118118 -48.80485779 10.5397702 -48.80810547 9.31225586 C-48.80890106 8.25985214 -48.80969666 7.20744843 -48.81051636 6.12315369 C-48.76997739 3.62568609 -48.76997739 3.62568609 -49.9375 1.625 C-52.2515622 0.89424352 -54.58578869 0.22361742 -56.9375 -0.375 C-56.9375 -2.355 -56.9375 -4.335 -56.9375 -6.375 C-10.53434787 -8.51713232 -10.53434787 -8.51713232 0 0 Z M-32.9375 -0.375 C-32.9621501 4.73363896 -32.98033607 9.84224359 -32.99243164 14.95092773 C-32.99747204 16.69019168 -33.0043043 18.42945136 -33.01293945 20.16870117 C-33.02501792 22.66325937 -33.03073108 25.15776173 -33.03515625 27.65234375 C-33.04031754 28.43463852 -33.04547882 29.21693329 -33.05079651 30.02293396 C-33.05099226 31.89067114 -32.99949694 33.75829204 -32.9375 35.625 C-31.15180839 37.41069161 -28.60096262 36.83968103 -26.1875 36.875 C-25.14078125 36.90078125 -24.0940625 36.9265625 -23.015625 36.953125 C-18.38874869 36.45990468 -15.85522437 34.62138646 -12.75 31.25 C-8.63576949 25.29145926 -8.13417629 19.70614977 -8.9375 12.625 C-10.58202798 7.27361707 -13.17447728 3.67821969 -17.9375 0.625 C-21.22269475 -0.47006492 -23.67413415 -0.47460608 -27.125 -0.4375 C-28.21167969 -0.42847656 -29.29835938 -0.41945313 -30.41796875 -0.41015625 C-31.24941406 -0.39855469 -32.08085938 -0.38695312 -32.9375 -0.375 Z " fill="#000000" transform="translate(906.9375,545.375)"/>
<path d="M0 0 C4.81928454 5.22089158 6.43614974 9.71495026 6.25 16.73046875 C5.56363817 22.96134724 2.33687774 27.66312226 -2 32 C-4.58307699 33.55080645 -7.22566709 34.82968587 -10 36 C-5.95480413 43.43502481 -1.7289675 50.68414154 3.125 57.625 C3.51993652 58.2039502 3.91487305 58.78290039 4.32177734 59.37939453 C8.45887129 65.16860093 13.2328558 68.06653023 20 70 C20 71.98 20 73.96 20 76 C13.27377826 78.24207391 4.26064963 78.15364556 -2.25 75.12890625 C-10.28289283 69.94697315 -14.28546519 60.50372653 -18.66796875 52.33984375 C-19.06806152 51.61007324 -19.4681543 50.88030273 -19.88037109 50.12841797 C-21 48 -21 48 -21.87353516 45.95361328 C-22.79745026 43.76751904 -22.79745026 43.76751904 -25 41 C-27.97 40.34 -30.94 39.68 -34 39 C-33.67 48.24 -33.34 57.48 -33 67 C-30.03 67.99 -27.06 68.98 -24 70 C-24 71.98 -24 73.96 -24 76 C-35.22 76 -46.44 76 -58 76 C-58 74.02 -58 72.04 -58 70 C-56.2984375 69.319375 -56.2984375 69.319375 -54.5625 68.625 C-50.95278308 67.42904194 -50.95278308 67.42904194 -50 65 C-49.89344678 63.07584847 -49.85116242 61.1480076 -49.83886719 59.22094727 C-49.82925964 58.00951553 -49.8196521 56.7980838 -49.80975342 55.54994202 C-49.80550354 54.23537521 -49.80125366 52.92080841 -49.796875 51.56640625 C-49.79112377 50.2088165 -49.78536603 48.85122678 -49.77960205 47.49363708 C-49.76909386 44.64638897 -49.76324981 41.79916908 -49.75976562 38.9519043 C-49.7542769 35.30210877 -49.7302406 31.65268558 -49.70179367 28.00300694 C-49.68317886 25.19861253 -49.67796236 22.39430808 -49.67642975 19.5898571 C-49.67192705 17.58952905 -49.65327631 15.58924914 -49.63446045 13.58900452 C-49.63746155 12.37442062 -49.64046265 11.15983673 -49.64355469 9.90844727 C-49.63808624 8.30200096 -49.63808624 8.30200096 -49.63250732 6.6631012 C-49.7849166 3.98451148 -49.7849166 3.98451148 -51.35430908 2.1736908 C-53.49215637 0.64899886 -55.42382214 0.34813214 -58 0 C-58 -1.98 -58 -3.96 -58 -6 C-53.58346769 -6.17035455 -49.16675741 -6.33559354 -44.75 -6.5 C-42.89761719 -6.57154297 -42.89761719 -6.57154297 -41.0078125 -6.64453125 C-9.19593843 -7.81654766 -9.19593843 -7.81654766 0 0 Z M-34 1 C-34.0883967 3.3756852 -34.11530305 5.72208674 -34.09765625 8.09765625 C-34.0962413 8.80651474 -34.09482635 9.51537323 -34.09336853 10.24571228 C-34.08775443 12.51801712 -34.07519963 14.79022475 -34.0625 17.0625 C-34.05748681 18.59960796 -34.05292359 20.13671745 -34.04882812 21.67382812 C-34.03778042 25.44925642 -34.02050641 29.22461171 -34 33 C-31.74237495 33.04563325 -29.48448555 33.07832542 -27.2265625 33.10546875 C-25.3405835 33.13483521 -25.3405835 33.13483521 -23.41650391 33.16479492 C-17.75348025 32.89163921 -15.37502773 30.48651646 -11.6875 26.5 C-8.70753304 22.08523413 -8.6407666 18.29869268 -9 13 C-10.82094021 7.62822637 -12.89714005 3.98356344 -17.7109375 0.90625 C-20.7823653 -0.30974189 -23.39464119 -0.22806153 -26.6875 -0.1875 C-27.84636719 -0.18105469 -29.00523437 -0.17460938 -30.19921875 -0.16796875 C-32.90461124 -0.31655808 -32.90461124 -0.31655808 -34 1 Z " fill="#000000" transform="translate(986,545)"/>
<path d="M0 0 C7.65806488 -0.0677121 15.31601877 -0.12277907 22.97430992 -0.15543652 C26.53018671 -0.17110864 30.08584852 -0.19237444 33.64160156 -0.22631836 C37.72723482 -0.26507759 41.81264141 -0.27969633 45.8984375 -0.29296875 C47.17866791 -0.30845261 48.45889832 -0.32393646 49.77792358 -0.33988953 C50.95899689 -0.34011612 52.14007019 -0.34034271 53.35693359 -0.34057617 C54.92246475 -0.35056892 54.92246475 -0.35056892 56.5196228 -0.36076355 C57.33814728 -0.24171158 58.15667175 -0.12265961 59 0 C61 3 61 3 60.78735352 5.4362793 C59.97496313 8.08152315 59.02409627 9.79060941 57.40234375 12.01953125 C56.5827417 13.1643396 56.5827417 13.1643396 55.74658203 14.33227539 C55.14958496 15.15074951 54.55258789 15.96922363 53.9375 16.8125 C47.65646887 25.58840978 41.61591879 34.4980899 35.68334961 43.51293945 C31.85296682 49.30812744 27.87818623 54.96143572 23.76708984 60.56079102 C21.72685623 63.37703501 19.83934142 66.2368898 18 69.1875 C17 70.79166667 16 72.39583333 15 74 C19.16743017 73.91850639 23.33346255 73.80571546 27.5 73.6875 C28.67304687 73.66494141 29.84609375 73.64238281 31.0546875 73.61914062 C41.51149545 73.46613367 41.51149545 73.46613367 50.4777832 68.62011719 C51.73785437 67.14961161 52.87441217 65.57582297 54 64 C54.598125 63.21625 55.19625 62.4325 55.8125 61.625 C56.204375 61.08875 56.59625 60.5525 57 60 C58.65 60.33 60.3 60.66 62 61 C60.68 67.93 59.36 74.86 58 82 C37.21 82 16.42 82 -5 82 C-7 77 -7 77 -6.11987305 74.80957031 C-5.58918213 74.07319336 -5.05849121 73.33681641 -4.51171875 72.578125 C-3.91601074 71.73032471 -3.32030273 70.88252441 -2.70654297 70.0090332 C-2.04025879 69.09855225 -1.37397461 68.18807129 -0.6875 67.25 C0.71305932 65.27011087 2.11276644 63.28961869 3.51171875 61.30859375 C4.2495459 60.27589355 4.98737305 59.24319336 5.74755859 58.17919922 C9.45529173 52.94593443 13.03378233 47.62606141 16.625 42.3125 C18.04479579 40.22212821 19.46535981 38.13227798 20.88671875 36.04296875 C21.5729834 35.03411621 22.25924805 34.02526367 22.96630859 32.98583984 C26.65733331 27.56672433 30.36046512 22.15590241 34.06689453 16.74731445 C34.55915527 16.02890381 35.05141602 15.31049316 35.55859375 14.5703125 C35.98454834 13.94914551 36.41050293 13.32797852 36.84936523 12.68798828 C37.90983678 11.13227 38.95562175 9.56656738 40 8 C35.83256983 8.08149361 31.66653745 8.19428454 27.5 8.3125 C26.32695313 8.33505859 25.15390625 8.35761719 23.9453125 8.38085938 C17.31850066 8.58562042 11.98977084 9.0724552 6 12 C3.66369252 14.39859044 3.66369252 14.39859044 2 17 C1.01769502 18.0173873 0.02530403 19.02596117 -1 20 C-2.32 19.34 -3.64 18.68 -5 18 C-3.35 12.06 -1.7 6.12 0 0 Z " fill="#000000" transform="translate(1115,539)"/>
<path d="M0 0 C0.6909375 -0.020625 1.381875 -0.04125 2.09375 -0.0625 C7.18694491 -0.1007947 10.76214233 0.78743195 15.25 3.25 C16.29976964 6.39930893 16.35131595 8.63814456 16.3125 11.9375 C16.30347656 12.93136719 16.29445313 13.92523437 16.28515625 14.94921875 C16.27355469 15.70847656 16.26195312 16.46773437 16.25 17.25 C14.6 17.25 12.95 17.25 11.25 17.25 C10.6621875 15.64125 10.6621875 15.64125 10.0625 14 C8.42932862 10.28961524 6.90510593 8.23647061 3.25 6.25 C-1.53288607 5.5740644 -5.56597614 5.66817346 -9.75 8.25 C-11.32422753 11.39845506 -11.41928343 14.84218072 -10.75 18.25 C-7.70928777 23.28617963 -3.55020723 25.21731561 1.5625 27.6875 C15.95951901 34.67744865 15.95951901 34.67744865 19.1875 42.125 C21.28777813 49.0427911 20.79211288 54.69696694 17.64453125 61.13671875 C13.67909216 67.14596958 8.09522052 69.67309056 1.25 71.25 C-17.3642643 72.69777611 -17.3642643 72.69777611 -23.75 68.25 C-26.28178016 63.08094885 -26.31335829 56.96081394 -26.75 51.25 C-24.44 51.25 -22.13 51.25 -19.75 51.25 C-19.44707031 51.93707031 -19.14414062 52.62414062 -18.83203125 53.33203125 C-16.32972619 58.84492953 -16.32972619 58.84492953 -12.375 63.3125 C-7.59954026 65.01802134 -3.73856016 65.89646867 1.0625 64 C4.44058237 62.46506312 4.44058237 62.46506312 6.25 59.25 C6.58120929 54.77867457 6.50189423 51.19081491 4.25 47.25 C2.94688327 46.52604626 1.60311613 45.87553893 0.25 45.25 C-2.21458951 43.98988821 -4.67192706 42.71956863 -7.125 41.4375 C-8.09566406 40.9415332 -8.09566406 40.9415332 -9.0859375 40.43554688 C-14.62963207 37.52398954 -19.42403059 34.54834697 -22.625 29 C-24.73800965 21.95663449 -24.47225607 15.99854574 -21.2265625 9.33203125 C-16.07759927 2.07172067 -8.42392007 0.06148847 0 0 Z " fill="#000000" transform="translate(637.75,540.75)"/>
<path d="M0 0 C16.17 0 32.34 0 49 0 C49.66 4.95 50.32 9.9 51 15 C49.35 15 47.7 15 46 15 C43.875 12.125 43.875 12.125 42 9 C38.95318939 6.96879293 38.39881676 6.75340125 34.98828125 6.8046875 C33.96408081 6.81218018 33.96408081 6.81218018 32.91918945 6.81982422 C31.62887817 6.84713623 31.62887817 6.84713623 30.3125 6.875 C27.569375 6.91625 24.82625 6.9575 22 7 C22 14.92 22 22.84 22 31 C32.3571962 31.02908965 32.3571962 31.02908965 37 27 C37.495 25.515 37.495 25.515 38 24 C39.65 24 41.3 24 43 24 C43 30.93 43 37.86 43 45 C41.68 45 40.36 45 39 45 C38.608125 44.05125 38.21625 43.1025 37.8125 42.125 C36.29385712 38.96218315 36.29385712 38.96218315 33.875 37.625 C29.89494468 36.75977058 26.05551047 36.84096037 22 37 C21.9011961 43.19171093 21.92526751 49.37747889 22.25 55.5625 C22.29640625 56.53316406 22.3428125 57.50382813 22.390625 58.50390625 C22.80050041 61.10693113 22.80050041 61.10693113 24.78515625 62.81640625 C29.67630464 65.43019454 35.41298116 64.37218679 40.625 63.0625 C46.12840205 61.08939979 48.90554156 56.74616295 52 52 C53.32 52.33 54.64 52.66 56 53 C55.52434234 55.45906037 55.04463948 57.91720993 54.5625 60.375 C54.42779297 61.07367187 54.29308594 61.77234375 54.15429688 62.4921875 C53.11328125 67.7734375 53.11328125 67.7734375 52 70 C35.17 70 18.34 70 1 70 C1 68.35 1 66.7 1 65 C2.65 64.34 4.3 63.68 6 63 C6 44.85 6 26.7 6 8 C4.02 7.01 2.04 6.02 0 5 C0 3.35 0 1.7 0 0 Z M40 42 C41 44 41 44 41 44 Z " fill="#000000" transform="translate(668,541)"/>
<path d="M0 0 C9.24 0 18.48 0 28 0 C28 1.65 28 3.3 28 5 C26.02 5.66 24.04 6.32 22 7 C21.80544495 12.04920342 21.62712739 17.09864511 21.46289062 22.14892578 C21.40501774 23.86164165 21.34295134 25.57422177 21.27636719 27.28662109 C20.10638474 43.77840214 20.10638474 43.77840214 24.875 59.125 C29.69232183 63.37557808 34.7386828 63.91538761 41 64 C45.01232913 63.56864038 48.15137932 62.66996369 51.375 60.125 C54.12999265 56.52231731 55.25208984 53.88035027 55.22705078 49.32324219 C55.22682419 47.94226349 55.22682419 47.94226349 55.22659302 46.53338623 C55.21627045 45.54783752 55.20594788 44.56228882 55.1953125 43.546875 C55.1924826 42.53151672 55.18965271 41.51615845 55.18673706 40.47003174 C55.17555001 37.22990084 55.15044791 33.99004724 55.125 30.75 C55.1149683 28.55208733 55.10584278 26.35417032 55.09765625 24.15625 C55.07561551 18.77073886 55.04215251 13.38538924 55 8 C53.02 7.01 51.04 6.02 49 5 C49 3.35 49 1.7 49 0 C55.6 0 62.2 0 69 0 C69.495 2.475 69.495 2.475 70 5 C69.195625 5.28875 68.39125 5.5775 67.5625 5.875 C64.8673532 6.73262568 64.8673532 6.73262568 64 9 C63.86694041 11.70198916 63.7899379 14.3823295 63.75390625 17.0859375 C63.7209173 18.75651466 63.68770665 20.42708745 63.65429688 22.09765625 C63.60727756 24.72148037 63.56295009 27.34529379 63.52319336 29.96923828 C63.07400537 58.23849463 63.07400537 58.23849463 55.8671875 65.4453125 C48.07257294 71.93538906 38.65072424 71.55916213 29 71 C21.53037263 69.88145174 15.36541018 67.43132431 10 62 C5.80725059 55.37275093 5.82254425 48.71098836 5.68359375 41.10546875 C5.6524221 39.68443596 5.6524221 39.68443596 5.62062073 38.23469543 C5.55542222 35.2190349 5.49637868 32.2032899 5.4375 29.1875 C5.39428652 27.13866326 5.35067134 25.08983496 5.30664062 23.04101562 C5.19977134 18.02742953 5.09842069 13.01375877 5 8 C3.02 7.01 1.04 6.02 -1 5 C-0.67 3.35 -0.34 1.7 0 0 Z " fill="#000000" transform="translate(731,541)"/>
<path d="M0 0 C13.98084822 0.00446557 27.96168797 0.00364389 41.94253604 -0.00090924 C113.09411919 -0.02340693 184.244532 -0.0430625 255.39395206 0.57477435 C257.13288765 0.58948661 257.13288765 0.58948661 258.90695326 0.60449609 C272.47121579 0.71953541 286.03479819 0.8601706 299.5982558 1.04801807 C303.80322662 1.10614049 308.00821584 1.15699141 312.21332996 1.20358142 C317.65892673 1.26489833 323.104104 1.34181649 328.54933219 1.42984805 C330.60341014 1.4607851 332.65756996 1.48673009 334.71177654 1.50743374 C337.52450252 1.53684188 340.33632369 1.58463518 343.14869754 1.63724384 C343.98482054 1.64187412 344.82094355 1.64650441 345.68240361 1.65127501 C347.9877011 1.70589122 347.9877011 1.70589122 351.64004581 2.12946185 C352.30004581 3.11946185 352.96004581 4.10946185 353.64004581 5.12946185 C350.78989763 7.97961003 347.95082627 7.47767959 344.12695377 7.5324007 C343.34893665 7.55093589 342.57091953 7.56947108 341.76932614 7.58856794 C339.16302516 7.64744923 336.55670843 7.69142702 333.9501044 7.73468646 C332.09348967 7.77194864 330.23688359 7.80964371 328.3802859 7.84774551 C307.89849004 8.24705522 287.41361233 8.35291812 266.92854445 8.43275961 C262.44592073 8.45084288 257.96331229 8.47186064 253.48070107 8.49278393 C239.98242664 8.55565937 226.48412669 8.61019179 212.98580615 8.66209278 C206.51952508 8.6869589 200.05324887 8.71290439 193.58697341 8.73918709 C120.6964677 9.03505916 47.80594935 9.2119638 -52.71012957 9.25157526 C-60.91425295 9.25316477 -69.11837428 9.25609237 -77.32249673 9.26028588 C-132.16958254 9.28799486 -187.01358029 9.21854453 -241.85870464 8.71554956 C-245.26363763 8.68456374 -248.66857984 8.65484296 -252.07352574 8.62531528 C-257.36740433 8.57877517 -262.66121231 8.52726013 -267.95500334 8.47166166 C-269.86937703 8.45199731 -271.78376394 8.4335694 -273.69816311 8.41656503 C-285.6127778 8.30850327 -297.46910314 7.89723648 -309.35995419 7.12946185 C-309.68995419 5.80946185 -310.01995419 4.48946185 -310.35995419 3.12946185 C-307.2470116 1.57299056 -303.92263144 1.89877507 -300.50096066 1.83255634 C-299.68590286 1.81326674 -298.87084507 1.79397714 -298.03108855 1.77410302 C-295.29843314 1.7113058 -292.5656874 1.65612624 -289.83285458 1.60162982 C-287.88300187 1.55990964 -285.93315022 1.51813959 -283.98329957 1.47632274 C-261.2554328 1.00354376 -238.52523842 0.76805267 -215.79354794 0.57477435 C-214.60784608 0.56441229 -213.42214423 0.55405022 -212.20051201 0.54337415 C-141.46842685 -0.07351726 -70.73418957 -0.02302848 0 0 Z " fill="#000000" transform="translate(810.3599541932344,666.8705381453037)"/>
</svg>
