<?xml version="1.0" standalone="no"?>
<!DOCTYPE svg PUBLIC "-//W3C//DTD SVG 20010904//EN"
 "http://www.w3.org/TR/2001/REC-SVG-20010904/DTD/svg10.dtd">
<svg version="1.0" xmlns="http://www.w3.org/2000/svg"
 width="147.000000pt" height="147.000000pt" viewBox="0 0 147.000000 147.000000"
 preserveAspectRatio="xMidYMid meet">

<g transform="translate(0.000000,147.000000) scale(0.100000,-0.100000)"
fill="#000000" stroke="none">
<path d="M617 1383 c-11 -10 -8 -61 3 -68 13 -8 13 -156 0 -191 -6 -15 -20
-34 -31 -41 -42 -31 -49 -63 -49 -241 0 -181 0 -182 -50 -182 -30 0 -33 18
-10 51 21 29 31 91 17 105 -9 9 -47 -25 -47 -42 0 -7 -4 -15 -9 -18 -5 -3 -8
28 -7 70 1 75 1 76 -36 110 -56 51 -68 46 -68 -27 0 -57 3 -64 36 -97 20 -20
43 -55 50 -77 l14 -40 -31 33 c-32 36 -84 62 -122 62 -34 0 -38 -9 -21 -42 20
-38 70 -68 115 -68 20 0 42 -6 48 -14 16 -19 -56 -38 -135 -34 -71 3 -94 -10
-94 -54 0 -22 7 -33 29 -46 23 -13 31 -26 36 -60 7 -47 45 -221 64 -287 31
-114 168 -161 466 -159 262 1 390 35 433 113 17 31 53 167 77 291 4 19 20 55
36 79 16 25 29 53 29 63 0 26 -33 55 -79 69 -35 10 -41 16 -41 40 0 27 -63
120 -114 168 -27 26 -57 29 -161 15 l-50 -6 23 25 c18 19 36 26 78 29 43 4 61
11 84 33 42 41 39 55 -13 55 -45 0 -71 -13 -124 -63 -18 -17 -33 -28 -33 -24
0 23 68 122 102 149 42 33 68 80 68 123 0 34 -13 32 -59 -10 -28 -26 -42 -49
-51 -83 -6 -26 -22 -67 -35 -92 -22 -42 -24 -43 -25 -17 0 36 -22 88 -44 106
-15 13 -19 13 -27 0 -21 -33 -3 -104 39 -151 28 -32 -18 -98 -68 -98 -4 0 -10
45 -12 100 l-3 99 -40 41 -40 41 1 135 1 134 -57 0 c-31 0 -60 -3 -63 -7z
m108 -28 c0 -5 -21 -11 -47 -13 -45 -3 -58 4 -41 22 11 10 88 3 88 -9z m-85
-300 c0 -3 -8 -18 -17 -32 -16 -24 -18 -51 -15 -235 2 -202 2 -208 -18 -208
-19 0 -20 7 -20 215 0 216 0 216 25 240 22 23 45 33 45 20z m-246 -167 c9 -12
16 -34 16 -47 0 -23 -2 -24 -15 -10 -18 18 -37 79 -25 79 5 0 16 -10 24 -22z
m721 -67 c14 -15 40 -47 56 -70 l31 -41 -39 0 c-21 0 -114 11 -207 25 -160 23
-199 24 -179 4 10 -10 342 -59 397 -59 l36 0 0 -59 0 -58 -61 -7 c-79 -8 -230
-8 -336 1 l-83 6 0 103 0 104 38 18 c45 23 116 41 208 51 110 13 112 13 139
-18z m-661 -207 c5 -13 2 -15 -16 -10 -13 3 -30 6 -38 7 -10 0 -8 3 5 9 30 13
42 12 49 -6z m86 -5 c0 -16 -5 -20 -27 -17 -17 2 -29 10 -31 21 -3 13 3 17 27
17 25 0 31 -4 31 -21z m759 -6 c8 -6 -13 -21 -34 -25 -14 -2 -21 3 -23 20 -3
20 -1 22 25 16 15 -4 30 -9 32 -11z m-995 -30 c19 -21 33 -39 31 -42 -8 -7
-94 21 -106 35 -6 8 -9 21 -5 29 10 26 43 17 80 -22z m140 -30 c41 -35 42 -38
21 -41 -36 -5 -90 22 -115 58 l-24 33 37 -6 c23 -3 55 -21 81 -44z m80 17 c23
0 45 -12 81 -44 l50 -44 -45 5 c-51 6 -94 29 -130 69 -20 22 -21 26 -7 21 10
-4 33 -7 51 -7z m806 -3 c0 -8 -8 -22 -19 -31 -16 -14 -22 -15 -46 -4 l-27 12
38 17 c49 22 54 22 54 6z m-574 -44 c17 -12 37 -29 44 -38 11 -13 7 -15 -33
-15 -36 0 -54 7 -88 33 -23 17 -44 37 -46 43 -6 18 90 0 123 -23z m171 -17
c18 -11 33 -24 33 -28 0 -5 -20 -8 -45 -8 -45 0 -125 40 -125 62 0 16 101 -3
137 -26z m283 18 c44 -18 45 -29 3 -37 -37 -7 -124 30 -103 43 22 14 54 12
100 -6z m-140 -14 c58 -30 58 -40 0 -40 -51 0 -110 27 -110 51 0 16 70 10 110
-11z m-707 -10 c48 -9 58 -15 63 -36 4 -14 4 -28 0 -31 -3 -4 -37 2 -74 13
-61 17 -67 22 -70 48 -3 21 0 27 10 24 7 -3 39 -11 71 -18z m262 -44 c89 -11
90 -11 93 -40 l4 -28 -87 7 c-48 4 -108 12 -133 18 -41 10 -47 16 -50 41 -4
28 -3 28 40 21 24 -4 84 -13 133 -19z m645 0 c0 -22 -105 -55 -178 -56 -27 0
-33 4 -30 18 2 13 23 21 93 33 117 21 115 21 115 5z m-232 -38 c-3 -21 -10
-24 -88 -30 -47 -4 -94 -5 -105 -3 -11 2 -36 4 -56 4 -36 1 -56 21 -43 42 3 5
70 9 150 9 145 0 145 0 142 -22z m-608 -18 c58 -12 115 -24 128 -26 16 -3 22
-11 22 -29 0 -21 -4 -25 -22 -21 -215 45 -252 58 -256 86 -3 16 0 21 10 18 7
-3 61 -16 118 -28z m830 -8 c0 -19 -27 -41 -58 -47 -31 -6 -33 -5 -30 16 2 15
12 26 28 30 36 10 60 10 60 1z m-120 -38 c0 -8 -10 -19 -22 -24 -30 -13 -211
-30 -220 -21 -4 3 -5 16 -2 29 6 20 13 22 68 23 33 0 84 4 111 8 56 8 65 6 65
-15z m-282 0 c7 -2 12 -14 10 -26 -3 -22 -6 -23 -108 -21 -134 3 -150 7 -150
38 l0 24 118 -5 c64 -3 123 -8 130 -10z m-443 -28 c29 -9 41 -18 43 -34 3 -20
0 -22 -25 -16 -55 14 -107 35 -115 47 -20 31 -3 32 97 3z m825 -13 c-1 -22
-24 -36 -91 -53 -95 -25 -99 -25 -99 4 0 22 7 25 78 39 93 18 112 19 112 10z
m-614 -25 c89 -11 94 -13 94 -35 0 -27 -24 -30 -129 -12 -77 13 -101 24 -101
44 0 18 14 18 136 3z m394 -28 c0 -26 -26 -32 -157 -33 -104 -2 -108 -1 -111
20 -3 21 1 22 65 26 189 9 203 8 203 -13z m-575 -14 c55 -14 112 -28 128 -31
21 -4 27 -11 27 -30 0 -14 -4 -25 -9 -25 -12 0 -243 58 -246 62 -8 10 -15 48
-8 48 4 0 53 -11 108 -24z m775 -15 c0 -14 -41 -41 -62 -41 -24 0 -24 37 0 43
31 8 62 7 62 -2z m-110 -31 c0 -28 -30 -39 -132 -48 -87 -8 -88 -8 -88 15 0
13 1 23 3 24 2 1 184 25 205 28 6 0 12 -8 12 -19z m-250 -24 c-1 -34 -16 -38
-118 -31 -101 7 -130 19 -119 47 6 17 237 0 237 -16z m-383 -33 c6 -8 9 -21 7
-28 -5 -11 -13 -11 -47 1 -44 16 -90 52 -81 65 7 11 107 -20 121 -38z m702 0
c-19 -22 -88 -53 -121 -53 -21 0 -28 5 -28 18 0 14 14 22 63 34 34 9 70 16 81
17 16 1 17 -1 5 -16z m-459 -52 c0 -24 0 -24 -80 -17 -97 8 -130 19 -130 44 0
10 2 21 5 23 2 3 49 -2 105 -10 95 -15 100 -17 100 -40z m280 10 c0 -25 -26
-31 -147 -31 -96 0 -103 1 -103 20 0 17 8 20 83 23 45 1 101 4 125 5 35 2 42
-1 42 -17z"/>
<path d="M947 793 c-14 -13 -6 -23 18 -23 16 0 25 6 25 15 0 15 -31 21 -43 8z"/>
<path d="M934 646 c-8 -21 -1 -49 14 -54 7 -2 12 5 12 16 0 11 7 23 16 26 8 3
12 10 9 16 -9 15 -45 12 -51 -4z"/>
<path d="M1116 613 c-12 -12 -6 -33 9 -33 8 0 15 6 15 14 0 17 -14 28 -24 19z"/>
</g>
</svg>
